M48
;Layer_Color=9474304
;FILE_FORMAT=4:4
METRIC
;TYPE=PLATED
T1F00S00C0.9000
T2F00S00C0.9900
T3F00S00C1.5000
T4F00S00C3.0000
%
T01
X01371000Y00731230
X01171000
X00971000
X00771000
X00571000
Y00931230
X00771000
Y01131230
X00571000
X00971000
Y00931230
X01171000
Y01131230
X01371000
Y00931230
Y01331230
Y01531230
X01171000
Y01331230
X00971000Y01331230
Y01531230
X00771000
X00571000
Y01331230
X00771000
T02
X01639870Y00767380
Y00792780
Y00818180
Y00843580
Y00868980
Y00894380
Y00919780
Y00945180
Y00970580
Y00995980
Y01021380
Y01046780
Y01072180
Y01097580
Y01122980
Y01148380
Y01173780
Y01199180
Y01224580
Y01249980
Y01275380
Y01300780
Y01326180
Y01351580
Y01376980
Y01402380
Y01427780
Y01453180
Y01478580
Y01503980
T03
X01471000Y00731230
Y00931230
Y01131230
Y01331230
Y01531230
T04
X01661460Y00490520
X00555290
Y01765600
X01661460
M30
