%FSAX44Y44*%
%MOMM*%
G71*
G01*
G75*
G04 Layer_Physical_Order=1*
G04 Layer_Color=255*
%ADD10C,0.3000*%
%ADD11C,1.2000*%
%ADD12C,0.7000*%
%ADD13C,1.4000*%
%ADD14C,1.2000*%
%ADD15R,1.5000X1.5000*%
%ADD16C,1.5000*%
%ADD17C,1.6000*%
%ADD18R,1.5000X1.5000*%
%ADD19C,3.8000*%
%ADD20R,1.6000X1.6000*%
%ADD21C,1.3500*%
%ADD22R,1.3500X1.3500*%
%ADD23C,1.5240*%
%ADD24C,1.5000*%
%ADD25R,1.5000X1.5000*%
%ADD26C,1.7000*%
%ADD27R,1.7000X1.7000*%
%ADD28C,1.3000*%
%ADD29R,1.5000X1.5000*%
%ADD30C,1.6000*%
%ADD31R,1.6000X1.6000*%
%ADD32O,4.0000X2.0000*%
%ADD33O,2.0000X4.0000*%
%ADD34O,2.0000X4.5000*%
%ADD35R,2.0000X2.0000*%
%ADD36C,2.0000*%
%ADD37C,1.7780*%
%ADD38C,3.0000*%
D10*
X00724160Y01731150D02*
X00767280Y01688030D01*
X00692250Y01731150D02*
X00724160D01*
X00641690Y01213150D02*
X00672130D01*
X00574740Y01146200D02*
X00641690Y01213150D01*
X00755950Y00876254D02*
Y00975660D01*
Y00870250D02*
Y00876254D01*
X00764540Y00867664D01*
X00755904Y00876300D02*
X00755950Y00876254D01*
X00890778Y01338880D02*
Y01371854D01*
X00725470Y01479850D02*
X00768858Y01523238D01*
X00775970D01*
X00783082Y01530350D01*
Y01619088D01*
X00750870Y01651300D02*
X00783082Y01619088D01*
X00781304Y01246217D02*
X00801670Y01225850D01*
X00781304Y01246217D02*
Y01424017D01*
X00725470Y01479850D02*
X00781304Y01424017D01*
X00842310Y01190290D02*
X00864916D01*
X00866440Y01188766D01*
Y01154730D02*
Y01188766D01*
X00607360Y01430320D02*
Y01463340D01*
Y01430320D02*
X00627680Y01410000D01*
X00816610Y01130300D02*
X00841040Y01154730D01*
X00779526Y01130300D02*
X00816610D01*
X00766826Y01143000D02*
X00779526Y01130300D01*
X00766826Y01143000D02*
Y01425550D01*
X00743470Y01448905D02*
X00766826Y01425550D01*
X00731015Y01448905D02*
X00743470D01*
X00725470Y01454450D02*
X00731015Y01448905D01*
X00604820Y01256330D02*
X00674116Y01325626D01*
Y01412240D01*
X00703072Y01441196D01*
X00733425D01*
X00737470Y01437151D01*
Y01427118D02*
Y01437151D01*
Y01427118D02*
X00743712Y01420876D01*
Y01269492D02*
Y01420876D01*
X00725470Y01251250D02*
X00743712Y01269492D01*
X00721660Y01578310D02*
Y01613200D01*
Y01578310D02*
X00736600Y01563370D01*
X00753510D01*
X00770990Y01545890D01*
X00721660Y01613200D02*
Y01681740D01*
X00692250Y01711150D02*
X00721660Y01681740D01*
X00649270Y01651300D02*
Y01733550D01*
X00659938Y01744218D01*
X00679182D01*
X00692250Y01731150D01*
X00890570Y01338880D02*
X00890778D01*
X00890570Y01372062D02*
X00890778Y01371854D01*
X00890570Y01372062D02*
Y01396030D01*
X00801670Y01352850D02*
X00818596D01*
X00823468Y01347978D01*
X00881472D01*
X00890570Y01338880D01*
X00890524Y01497584D02*
X00890570Y01497630D01*
X00890524Y01444877D02*
Y01497584D01*
Y01444877D02*
X00890570Y01444830D01*
X00842310Y01291890D02*
Y01335070D01*
X00570530Y01365550D02*
Y01410000D01*
Y01365550D02*
X00627680Y01308400D01*
X00570530Y01563670D02*
X00620060Y01613200D01*
X00570530Y01410000D02*
Y01563670D01*
X00596800Y01629129D02*
Y01638600D01*
Y01629129D02*
X00612729Y01613200D01*
X00620060D01*
X00915970Y01338880D02*
Y01497630D01*
Y01507698D01*
X00908050Y01515618D02*
X00915970Y01507698D01*
X00903263Y01515618D02*
X00908050D01*
X00872990Y01545890D02*
X00903263Y01515618D01*
X00872990Y01545890D02*
Y01677970D01*
X00755904Y00876300D02*
Y00956656D01*
X00764540Y00867664D02*
X00819150D01*
X00841040Y00889554D01*
Y01154730D01*
X00705912Y01429050D02*
X00725470D01*
X00699262Y01422400D02*
X00705912Y01429050D01*
X00699262Y00942594D02*
Y01422400D01*
Y00942594D02*
X00704850Y00937006D01*
X00724754D01*
X00736900Y00924860D01*
X00713232Y01391412D02*
X00725470Y01403650D01*
X00713232Y01084580D02*
Y01391412D01*
Y01084580D02*
X00736900Y01060912D01*
Y01026460D02*
Y01060912D01*
X00724662Y01013298D02*
X00736900Y01001060D01*
X00724662Y01013298D02*
Y01030478D01*
X00707136Y01048004D02*
X00724662Y01030478D01*
X00707136Y01048004D02*
Y01405382D01*
X00717550Y01415796D01*
X00733425D01*
X00737616Y01411605D01*
Y01390396D02*
Y01411605D01*
X00725470Y01378250D02*
X00737616Y01390396D01*
X00736900Y01026460D02*
X00782620D01*
Y00907080D02*
Y01026460D01*
Y00907080D02*
X00810560D01*
X00811830Y00905810D01*
X00736900Y01001060D02*
X00768650D01*
Y00880410D02*
Y01001060D01*
Y00880410D02*
X00811830D01*
X00716580Y00733090D02*
X00772460D01*
X00773730Y00734360D01*
X00937560Y00804210D02*
X00964230D01*
X00937560D02*
Y00853740D01*
X00938830Y00855010D01*
X00964230D01*
X00664510Y00802940D02*
X00706420D01*
Y00829610D01*
X00741980D01*
X01487470Y00623870D02*
Y00645200D01*
Y00623870D02*
X01490010Y00621330D01*
X01487470Y00862630D02*
Y00886500D01*
X01490010Y01350310D02*
Y01372910D01*
X01487470Y01101390D02*
Y01123990D01*
Y01101390D02*
X01488740Y01100120D01*
X01486200Y01600500D02*
Y01624370D01*
X01412540Y00926130D02*
X01425240Y00938830D01*
X01412540Y00839770D02*
Y00926130D01*
Y00839770D02*
X01425240Y00827070D01*
Y00697530D02*
Y00827070D01*
Y00938830D02*
Y01064560D01*
X01412540Y01077260D02*
X01425240Y01064560D01*
X01412540Y01077260D02*
Y01163620D01*
X01425240Y01176320D01*
Y01321100D01*
X01413810Y01332530D02*
X01425240Y01321100D01*
X01413810Y01332530D02*
Y01413810D01*
X01426510Y01426510D01*
X01425670Y01427350D02*
X01426510Y01426510D01*
X01425670Y01427350D02*
Y01578201D01*
X01411270Y01592600D02*
X01425670Y01578201D01*
X01411270Y01592600D02*
Y01664000D01*
X01423970Y01676700D01*
X01422700Y01677970D02*
X01423970Y01676700D01*
X01422700Y01677970D02*
Y01783380D01*
X00964230D02*
X01422700D01*
X00964230Y01058210D02*
Y01783380D01*
X01387140Y00710230D02*
X01399840Y00697530D01*
X01387140Y00710230D02*
Y00926130D01*
X01399840Y00938830D01*
X01387140Y00951530D02*
X01399840Y00938830D01*
X01387140Y00951530D02*
Y01163620D01*
X01399840Y01176320D01*
X01388410Y01187750D02*
X01399840Y01176320D01*
X01388410Y01187750D02*
Y01413810D01*
X01401110Y01426510D01*
X01386570Y01441050D02*
X01401110Y01426510D01*
X01386570Y01441050D02*
Y01663430D01*
X01398570Y01675430D01*
X00964230Y01032810D02*
X00984550D01*
Y01770680D01*
X01398570D01*
Y01676700D02*
Y01770680D01*
X00964230Y01007410D02*
X00997250D01*
Y01757980D01*
X01371900D01*
Y01677970D02*
Y01757980D01*
Y01677970D02*
X01373170Y01676700D01*
X01371200D02*
X01373170D01*
X01359770Y01665270D02*
X01371200Y01676700D01*
X01359770Y01593580D02*
Y01665270D01*
Y01593580D02*
X01375710Y01577640D01*
Y01426510D02*
Y01577640D01*
X01363010Y01413810D02*
X01375710Y01426510D01*
X01363010Y01332530D02*
Y01413810D01*
Y01332530D02*
X01374440Y01321100D01*
Y01176320D02*
Y01321100D01*
X01361740Y01163620D02*
X01374440Y01176320D01*
X01361740Y01077260D02*
Y01163620D01*
Y01077260D02*
X01374440Y01064560D01*
Y00938830D02*
Y01064560D01*
X01361740Y00926130D02*
X01374440Y00938830D01*
X01361740Y00843580D02*
Y00926130D01*
Y00843580D02*
X01374440Y00830880D01*
Y00697530D02*
Y00830880D01*
X01336340Y00710230D02*
X01349040Y00697530D01*
X01336340Y00710230D02*
Y00926130D01*
X01349040Y00938830D01*
X01336340Y00951530D02*
X01349040Y00938830D01*
X01336340Y00951530D02*
Y01163620D01*
X01349040Y01176320D01*
X01337610Y01187750D02*
X01349040Y01176320D01*
X01337610Y01187750D02*
Y01413810D01*
X01350310Y01426510D01*
X01335770Y01441050D02*
X01350310Y01426510D01*
X01335770Y01441050D02*
Y01664000D01*
X01347770Y01676000D01*
Y01676700D01*
X01349040Y01677970D01*
Y01745280D01*
X01015030D02*
X01349040D01*
X01015030Y00982010D02*
Y01745280D01*
X00964230Y00982010D02*
X01015030D01*
X00964230Y00956610D02*
X01029000D01*
Y01732580D01*
X01322370D01*
Y01676700D02*
Y01732580D01*
X01310370Y01664700D02*
X01322370Y01676700D01*
X01310370Y01441050D02*
Y01664700D01*
Y01441050D02*
X01324910Y01426510D01*
X01312210Y01413810D02*
X01324910Y01426510D01*
X01312210Y01187750D02*
Y01413810D01*
Y01187750D02*
X01323640Y01176320D01*
X01310940Y01163620D02*
X01323640Y01176320D01*
X01310940Y00951530D02*
Y01163620D01*
Y00951530D02*
X01323640Y00938830D01*
X01310940Y00926130D02*
X01323640Y00938830D01*
X01310940Y00710230D02*
Y00926130D01*
Y00710230D02*
X01323640Y00697530D01*
X00964230Y00702610D02*
X01073450D01*
Y01478580D01*
X01220770D01*
Y01600500D01*
X00964230Y00677210D02*
X01086150D01*
Y01224580D01*
X01223310D01*
Y01350310D01*
X00964230Y00651810D02*
X01098850D01*
Y00987090D01*
X01222040D01*
Y01100120D01*
X00964230Y00626410D02*
X01111550D01*
Y00748330D01*
X01222040D01*
Y00862630D01*
X00964230Y00601010D02*
X01222040D01*
Y00621330D01*
X00964230Y00541320D02*
Y00575610D01*
Y00541320D02*
X01260840D01*
Y00651810D01*
X01449370D01*
Y00696260D01*
X01450640Y00697530D01*
Y00838500D01*
X01437940Y00851200D02*
X01450640Y00838500D01*
X01437940Y00851200D02*
Y00926130D01*
X01450640Y00938830D01*
Y01073450D01*
X01437940Y01086150D02*
X01450640Y01073450D01*
X01437940Y01086150D02*
Y01163620D01*
X01450640Y01176320D01*
Y01326180D01*
X01439210Y01337610D02*
X01450640Y01326180D01*
X01439210Y01337610D02*
Y01413810D01*
X01451910Y01426510D01*
Y01572560D01*
X01436670Y01587800D02*
X01451910Y01572560D01*
X01436670Y01587800D02*
Y01664000D01*
X01449370Y01676700D01*
X00664510Y00904540D02*
Y01031540D01*
X00573470D02*
X00664510D01*
X00573470D02*
Y01055310D01*
X00664510Y00868980D02*
Y00904540D01*
Y00868980D02*
X00755950D01*
Y00856280D02*
Y00868980D01*
Y00856280D02*
X00810560D01*
X00811830Y00855010D01*
X00736900Y00975660D02*
X00755950D01*
D11*
X00773730Y00734360D02*
Y00769920D01*
Y00528620D02*
Y00734360D01*
X01553510Y00862630D02*
Y01100120D01*
Y01350310D01*
Y00621330D02*
Y00862630D01*
Y00495600D02*
Y00621330D01*
X00729280Y00529890D02*
Y00578150D01*
Y00529890D02*
X00730550Y00528620D01*
X00773730D01*
X00741980Y00801670D02*
X00773730Y00769920D01*
X00741980Y00801670D02*
Y00804210D01*
Y00829610D02*
X00782620D01*
X00811830D01*
X00900730D02*
X00935020D01*
X00900730Y00495600D02*
X01553510D01*
X00811830Y00829610D02*
X00900730D01*
Y00495600D02*
Y00829610D01*
X01553510Y01350310D02*
Y01596690D01*
D12*
X01486200Y01600500D02*
X01553510D01*
X01450640Y00621330D02*
X01490010D01*
X01553510D01*
X01490010Y01350310D02*
X01553510D01*
X01488740Y01100120D02*
X01553510D01*
X01450640Y00862630D02*
X01487470D01*
X01553510D01*
X01450640Y01100120D02*
X01488740D01*
X01451910Y01350310D02*
X01490010D01*
X01449370Y01600500D02*
X01486200D01*
X00609670Y00652950D02*
X00671970Y00590650D01*
X00609670Y00652950D02*
Y00691180D01*
X00714270Y00645230D02*
Y00691180D01*
Y00645230D02*
X00729280Y00630220D01*
D13*
X00627680Y01410000D02*
D03*
Y01308400D02*
D03*
X00570530D02*
D03*
Y01410000D02*
D03*
X00842310Y01291890D02*
D03*
Y01190290D02*
D03*
X00903270Y01256330D02*
D03*
Y01154730D02*
D03*
X00750870Y01575100D02*
D03*
X00649270D02*
D03*
X00750870Y01651300D02*
D03*
X00649270D02*
D03*
X00721660Y01613200D02*
D03*
X00620060D02*
D03*
X00664510Y00904540D02*
D03*
Y00802940D02*
D03*
X00614980Y00733090D02*
D03*
X00716580D02*
D03*
X01143300Y00576880D02*
D03*
X01041700D02*
D03*
X01143300Y00814370D02*
D03*
X01041700D02*
D03*
X01143300Y01053130D02*
D03*
X01041700D02*
D03*
X01143300Y01300780D02*
D03*
X01041700D02*
D03*
X01143300Y01553510D02*
D03*
X01041700D02*
D03*
D14*
X00915970Y01497630D02*
D03*
X00890570D02*
D03*
X00915970Y01338880D02*
D03*
X00890570D02*
D03*
Y01396030D02*
D03*
Y01444830D02*
D03*
X00842310Y01360470D02*
D03*
Y01335070D02*
D03*
X00579420Y00917240D02*
D03*
X00554020D02*
D03*
X00579420Y00772460D02*
D03*
X00554020D02*
D03*
X00569260Y00815100D02*
D03*
Y00863900D02*
D03*
X00782620Y00829610D02*
D03*
Y00804210D02*
D03*
X00650540Y00645460D02*
D03*
X00675940D02*
D03*
X00705150Y00528620D02*
D03*
X00730550D02*
D03*
D15*
X00866440Y01154730D02*
D03*
X00801670Y01149650D02*
D03*
X00772260Y01680510D02*
D03*
X00770990Y01545890D02*
D03*
X00904540Y01721150D02*
D03*
D16*
X00841040Y01154730D02*
D03*
X00725470Y01479850D02*
D03*
Y01454450D02*
D03*
Y01429050D02*
D03*
Y01403650D02*
D03*
Y01378250D02*
D03*
Y01352850D02*
D03*
Y01327450D02*
D03*
Y01302050D02*
D03*
Y01276650D02*
D03*
Y01251250D02*
D03*
Y01225850D02*
D03*
Y01200450D02*
D03*
Y01175050D02*
D03*
Y01149650D02*
D03*
X00801670Y01479850D02*
D03*
Y01454450D02*
D03*
Y01429050D02*
D03*
Y01403650D02*
D03*
Y01378250D02*
D03*
Y01352850D02*
D03*
Y01327450D02*
D03*
Y01302050D02*
D03*
Y01276650D02*
D03*
Y01251250D02*
D03*
Y01225850D02*
D03*
Y01200450D02*
D03*
Y01175050D02*
D03*
X00672130Y01187750D02*
D03*
X00940100Y01149650D02*
D03*
Y01124250D02*
D03*
X00874260Y01680510D02*
D03*
X00872990Y01545890D02*
D03*
X00741980Y00829610D02*
D03*
X00929940Y01721150D02*
D03*
X00711500Y00924860D02*
D03*
X00736900Y00950260D02*
D03*
X00711500D02*
D03*
X00736900Y00975660D02*
D03*
X00711500D02*
D03*
X00736900Y01001060D02*
D03*
X00711500D02*
D03*
X00736900Y01026460D02*
D03*
X00711500D02*
D03*
X00629970Y00528150D02*
D03*
X00649970D02*
D03*
X00609970Y00588150D02*
D03*
Y00568150D02*
D03*
X01553510Y01600500D02*
D03*
D17*
X00607360Y01488740D02*
D03*
Y01463340D02*
D03*
X00604820Y01256330D02*
D03*
Y01281730D02*
D03*
X00692250Y01731150D02*
D03*
X00667250D02*
D03*
X00692250Y01711150D02*
D03*
X00579420Y00692450D02*
D03*
X00554020D02*
D03*
D18*
X00672130Y01213150D02*
D03*
X00940100Y01175050D02*
D03*
X00741980Y00804210D02*
D03*
X00736900Y00924860D02*
D03*
D19*
X00739950Y01758250D02*
D03*
X00619550D02*
D03*
D20*
X00667250Y01711150D02*
D03*
D21*
X00546800Y01638600D02*
D03*
D22*
X00596800D02*
D03*
D23*
X00574740Y01191200D02*
D03*
Y01146200D02*
D03*
X00573470Y01055310D02*
D03*
Y01010310D02*
D03*
D24*
X00964230Y00575610D02*
D03*
Y00601010D02*
D03*
Y00626410D02*
D03*
Y00651810D02*
D03*
Y00677210D02*
D03*
Y00702610D02*
D03*
Y00728010D02*
D03*
Y00753410D02*
D03*
Y00778810D02*
D03*
Y00804210D02*
D03*
Y00829610D02*
D03*
Y00855010D02*
D03*
Y00880410D02*
D03*
Y00905810D02*
D03*
Y00931210D02*
D03*
Y00956610D02*
D03*
Y00982010D02*
D03*
Y01007410D02*
D03*
Y01032810D02*
D03*
Y01058210D02*
D03*
X00811830Y00575610D02*
D03*
Y00601010D02*
D03*
Y00626410D02*
D03*
Y00651810D02*
D03*
Y00677210D02*
D03*
Y00702610D02*
D03*
Y00728010D02*
D03*
Y00753410D02*
D03*
Y00778810D02*
D03*
Y00804210D02*
D03*
Y00829610D02*
D03*
Y00855010D02*
D03*
Y00880410D02*
D03*
Y00905810D02*
D03*
Y00931210D02*
D03*
Y00956610D02*
D03*
Y00982010D02*
D03*
Y01007410D02*
D03*
Y01032810D02*
D03*
X01425240Y00697530D02*
D03*
X01399840D02*
D03*
X01374440D02*
D03*
X01349040D02*
D03*
X01323640D02*
D03*
X01298240D02*
D03*
X01272840D02*
D03*
X01247440D02*
D03*
X01222040D02*
D03*
X01450640Y00621330D02*
D03*
X01425240D02*
D03*
X01399840D02*
D03*
X01374440D02*
D03*
X01349040D02*
D03*
X01323640D02*
D03*
X01298240D02*
D03*
X01272840D02*
D03*
X01247440D02*
D03*
X01222040D02*
D03*
X01425240Y00938830D02*
D03*
X01399840D02*
D03*
X01374440D02*
D03*
X01349040D02*
D03*
X01323640D02*
D03*
X01298240D02*
D03*
X01272840D02*
D03*
X01247440D02*
D03*
X01222040D02*
D03*
X01450640Y00862630D02*
D03*
X01425240D02*
D03*
X01399840D02*
D03*
X01374440D02*
D03*
X01349040D02*
D03*
X01323640D02*
D03*
X01298240D02*
D03*
X01272840D02*
D03*
X01247440D02*
D03*
X01222040D02*
D03*
X01425240Y01176320D02*
D03*
X01399840D02*
D03*
X01374440D02*
D03*
X01349040D02*
D03*
X01323640D02*
D03*
X01298240D02*
D03*
X01272840D02*
D03*
X01247440D02*
D03*
X01222040D02*
D03*
X01450640Y01100120D02*
D03*
X01425240D02*
D03*
X01399840D02*
D03*
X01374440D02*
D03*
X01349040D02*
D03*
X01323640D02*
D03*
X01298240D02*
D03*
X01272840D02*
D03*
X01247440D02*
D03*
X01222040D02*
D03*
X01426510Y01426510D02*
D03*
X01401110D02*
D03*
X01375710D02*
D03*
X01350310D02*
D03*
X01324910D02*
D03*
X01299510D02*
D03*
X01274110D02*
D03*
X01248710D02*
D03*
X01223310D02*
D03*
X01451910Y01350310D02*
D03*
X01426510D02*
D03*
X01401110D02*
D03*
X01375710D02*
D03*
X01350310D02*
D03*
X01324910D02*
D03*
X01299510D02*
D03*
X01274110D02*
D03*
X01248710D02*
D03*
X01223310D02*
D03*
X01423970Y01676700D02*
D03*
X01398570D02*
D03*
X01373170D02*
D03*
X01347770D02*
D03*
X01322370D02*
D03*
X01296970D02*
D03*
X01271570D02*
D03*
X01246170D02*
D03*
X01220770D02*
D03*
X01449370Y01600500D02*
D03*
X01423970D02*
D03*
X01398570D02*
D03*
X01373170D02*
D03*
X01347770D02*
D03*
X01322370D02*
D03*
X01296970D02*
D03*
X01271570D02*
D03*
X01246170D02*
D03*
X01220770D02*
D03*
X00671970Y00565650D02*
D03*
Y00590650D02*
D03*
D25*
X00811830Y01058210D02*
D03*
D26*
X00729280Y00578150D02*
D03*
Y00603550D02*
D03*
X01159810Y00687370D02*
D03*
Y00661970D02*
D03*
Y00927400D02*
D03*
Y00902000D02*
D03*
Y01164890D02*
D03*
Y01139490D02*
D03*
X01161080Y01415080D02*
D03*
Y01389680D02*
D03*
X01158540Y01665270D02*
D03*
Y01639870D02*
D03*
D27*
X00729280Y00628950D02*
D03*
X01159810Y00636570D02*
D03*
Y00876600D02*
D03*
Y01114090D02*
D03*
X01161080Y01364280D02*
D03*
X01158540Y01614470D02*
D03*
D28*
X01487470Y00645200D02*
D03*
Y00676200D02*
D03*
Y00886500D02*
D03*
Y00917500D02*
D03*
Y01123990D02*
D03*
Y01154990D02*
D03*
X01490010Y01372910D02*
D03*
Y01403910D02*
D03*
X01486200Y01624370D02*
D03*
Y01655370D02*
D03*
X01474770Y01506260D02*
D03*
Y01537260D02*
D03*
X01436670Y01506260D02*
D03*
Y01537260D02*
D03*
X01398570Y01506260D02*
D03*
Y01537260D02*
D03*
X01360470Y01506260D02*
D03*
Y01537260D02*
D03*
X01322370Y01506260D02*
D03*
Y01537260D02*
D03*
X01477310Y01256330D02*
D03*
Y01287330D02*
D03*
X01439210Y01256070D02*
D03*
Y01287070D02*
D03*
X01401110Y01256070D02*
D03*
Y01287070D02*
D03*
X01324910Y01256070D02*
D03*
Y01287070D02*
D03*
X01363010Y01256070D02*
D03*
Y01287070D02*
D03*
X01476040Y01005880D02*
D03*
Y01036880D02*
D03*
X01437940Y01005880D02*
D03*
Y01036880D02*
D03*
X01361740Y01005880D02*
D03*
Y01036880D02*
D03*
X01399840Y01005880D02*
D03*
Y01036880D02*
D03*
X01323640Y01005880D02*
D03*
Y01036880D02*
D03*
X01476040Y00768390D02*
D03*
Y00799390D02*
D03*
X01399840Y00768390D02*
D03*
Y00799390D02*
D03*
X01361740Y00768390D02*
D03*
Y00799390D02*
D03*
X01323640Y00768390D02*
D03*
Y00799390D02*
D03*
X01437940Y00768390D02*
D03*
Y00799390D02*
D03*
X01323640Y00528360D02*
D03*
Y00559360D02*
D03*
X01361740Y00528360D02*
D03*
Y00559360D02*
D03*
X01399840Y00528360D02*
D03*
Y00559360D02*
D03*
X01437940Y00528360D02*
D03*
Y00559360D02*
D03*
X01476040Y00528360D02*
D03*
Y00559360D02*
D03*
D29*
X01450640Y00697530D02*
D03*
Y00938830D02*
D03*
Y01176320D02*
D03*
X01451910Y01426510D02*
D03*
X01449370Y01676700D02*
D03*
D30*
X01639870Y00767380D02*
D03*
Y00792780D02*
D03*
Y00818180D02*
D03*
Y00843580D02*
D03*
Y00868980D02*
D03*
Y00894380D02*
D03*
Y00919780D02*
D03*
Y00945180D02*
D03*
Y00970580D02*
D03*
Y00995980D02*
D03*
Y01021380D02*
D03*
Y01046780D02*
D03*
Y01072180D02*
D03*
Y01097580D02*
D03*
Y01122980D02*
D03*
Y01148380D02*
D03*
Y01173780D02*
D03*
Y01199180D02*
D03*
Y01224580D02*
D03*
Y01249980D02*
D03*
Y01275380D02*
D03*
Y01300780D02*
D03*
Y01326180D02*
D03*
Y01351580D02*
D03*
Y01376980D02*
D03*
Y01402380D02*
D03*
Y01427780D02*
D03*
Y01453180D02*
D03*
Y01478580D02*
D03*
D31*
Y01503980D02*
D03*
D32*
X00639970Y00528150D02*
D03*
D33*
X00609970Y00578150D02*
D03*
D34*
X00671970D02*
D03*
D35*
X00714270Y00691180D02*
D03*
D36*
X00609670D02*
D03*
D37*
X00599740Y01203700D02*
D03*
Y01133700D02*
D03*
X00598470Y01067810D02*
D03*
Y00997810D02*
D03*
D38*
X00555290Y01765600D02*
D03*
X01661460D02*
D03*
Y00490520D02*
D03*
X00555290D02*
D03*
M02*
