%FSAX44Y44*%
%MOMM*%
G71*
G01*
G75*
%ADD10C,0.3000*%
%ADD11C,1.2000*%
%ADD12C,0.7000*%
%ADD13C,1.4000*%
%ADD14C,1.2000*%
%ADD15R,1.5000X1.5000*%
%ADD16C,1.5000*%
%ADD17C,1.6000*%
%ADD18R,1.5000X1.5000*%
%ADD19C,3.8000*%
%ADD20R,1.6000X1.6000*%
%ADD21C,1.3500*%
%ADD22R,1.3500X1.3500*%
%ADD23C,1.5240*%
%ADD24C,1.5000*%
%ADD25R,1.5000X1.5000*%
%ADD26C,1.7000*%
%ADD27R,1.7000X1.7000*%
%ADD28C,1.3000*%
%ADD29R,1.5000X1.5000*%
%ADD30C,1.6000*%
%ADD31R,1.6000X1.6000*%
%ADD32O,4.0000X2.0000*%
%ADD33O,2.0000X4.0000*%
%ADD34O,2.0000X4.5000*%
%ADD35R,2.0000X2.0000*%
%ADD36C,2.0000*%
%ADD37C,1.7780*%
%ADD38C,3.0000*%
%ADD39C,1.5000*%
%ADD40C,0.2540*%
%ADD41C,0.2000*%
%ADD42C,0.2500*%
%ADD43C,0.2032*%
%ADD44C,0.1500*%
%ADD45R,0.8000X2.7000*%
%ADD46R,0.8000X2.8000*%
D40*
X00907802Y01444307D02*
G03*
X00873341Y01444220I-00017232J00000523D01*
G01*
Y01394831D02*
G03*
X00907802Y01394744I00017229J-00000611D01*
G01*
X00594660Y01495090D02*
G03*
X00620060Y01495090I00012700J-00019050D01*
G01*
X00617520Y01249980D02*
G03*
X00592120Y01249980I-00012700J00019050D01*
G01*
X00586489Y00865100D02*
G03*
X00552028Y00865187I-00017229J00000611D01*
G01*
Y00815624D02*
G03*
X00586489Y00815711I00017232J-00000523D01*
G01*
X00547670Y00679750D02*
G03*
X00547670Y00705150I00019050J00012700D01*
G01*
X00873341Y01394831D02*
Y01444220D01*
X00907802Y01394743D02*
Y01444307D01*
X00594660Y01495090D02*
X00620060D01*
X00592120Y01249980D02*
X00617520D01*
X00549740Y01118700D02*
X00624740D01*
Y01218700D01*
X00549740D02*
X00624740D01*
X00549740Y01118700D02*
Y01218700D01*
X00548470Y00982810D02*
X00623470D01*
Y01082810D01*
X00548470D02*
X00623470D01*
X00548470Y00982810D02*
Y01082810D01*
X00552028Y00815623D02*
Y00865187D01*
X00586490Y00815711D02*
Y00865100D01*
X00547670Y00679750D02*
Y00705150D01*
X00874522Y01486149D02*
Y01483610D01*
X00879600Y01478531D01*
X00884679Y01483610D01*
Y01486149D01*
X00879600Y01478531D02*
Y01470914D01*
X00899914D02*
X00889757D01*
X00899914Y01481071D01*
Y01483610D01*
X00897375Y01486149D01*
X00892296D01*
X00889757Y01483610D01*
X00829818Y01191255D02*
Y01176020D01*
X00834896Y01181098D01*
X00839975Y01176020D01*
Y01191255D01*
X00855210D02*
X00850131Y01188716D01*
X00845053Y01183637D01*
Y01178559D01*
X00847592Y01176020D01*
X00852671D01*
X00855210Y01178559D01*
Y01181098D01*
X00852671Y01183637D01*
X00845053D01*
X00660908Y01249675D02*
Y01234440D01*
X00665986Y01239518D01*
X00671065Y01234440D01*
Y01249675D01*
X00686300D02*
X00676143D01*
Y01242057D01*
X00681221Y01244597D01*
X00683761D01*
X00686300Y01242057D01*
Y01236979D01*
X00683761Y01234440D01*
X00678682D01*
X00676143Y01236979D01*
X00719582Y01516375D02*
Y01503679D01*
X00722121Y01501140D01*
X00727199D01*
X00729739Y01503679D01*
Y01516375D01*
X00734817Y01513836D02*
X00737356Y01516375D01*
X00742435D01*
X00744974Y01513836D01*
Y01511297D01*
X00742435Y01508757D01*
X00744974Y01506218D01*
Y01503679D01*
X00742435Y01501140D01*
X00737356D01*
X00734817Y01503679D01*
Y01506218D01*
X00737356Y01508757D01*
X00734817Y01511297D01*
Y01513836D01*
X00737356Y01508757D02*
X00742435D01*
X00894588Y01272032D02*
Y01287267D01*
X00902206D01*
X00904745Y01284728D01*
Y01279650D01*
X00902206Y01277110D01*
X00894588D01*
X00899666D02*
X00904745Y01272032D01*
X00909823Y01284728D02*
X00912362Y01287267D01*
X00917441D01*
X00919980Y01284728D01*
Y01282189D01*
X00917441Y01279650D01*
X00914901D01*
X00917441D01*
X00919980Y01277110D01*
Y01274571D01*
X00917441Y01272032D01*
X00912362D01*
X00909823Y01274571D01*
X00925058D02*
X00927597Y01272032D01*
X00932676D01*
X00935215Y01274571D01*
Y01284728D01*
X00932676Y01287267D01*
X00927597D01*
X00925058Y01284728D01*
Y01282189D01*
X00927597Y01279650D01*
X00935215D01*
X00618998Y01425702D02*
Y01440937D01*
X00626615D01*
X00629155Y01438398D01*
Y01433320D01*
X00626615Y01430780D01*
X00618998D01*
X00624076D02*
X00629155Y01425702D01*
X00634233Y01438398D02*
X00636772Y01440937D01*
X00641851D01*
X00644390Y01438398D01*
Y01435859D01*
X00641851Y01433320D01*
X00639311D01*
X00641851D01*
X00644390Y01430780D01*
Y01428241D01*
X00641851Y01425702D01*
X00636772D01*
X00634233Y01428241D01*
X00649468Y01438398D02*
X00652007Y01440937D01*
X00657086D01*
X00659625Y01438398D01*
Y01435859D01*
X00657086Y01433320D01*
X00659625Y01430780D01*
Y01428241D01*
X00657086Y01425702D01*
X00652007D01*
X00649468Y01428241D01*
Y01430780D01*
X00652007Y01433320D01*
X00649468Y01435859D01*
Y01438398D01*
X00652007Y01433320D02*
X00657086D01*
X00561848Y01425702D02*
Y01440937D01*
X00569465D01*
X00572005Y01438398D01*
Y01433320D01*
X00569465Y01430780D01*
X00561848D01*
X00566926D02*
X00572005Y01425702D01*
X00577083Y01438398D02*
X00579622Y01440937D01*
X00584701D01*
X00587240Y01438398D01*
Y01435859D01*
X00584701Y01433320D01*
X00582161D01*
X00584701D01*
X00587240Y01430780D01*
Y01428241D01*
X00584701Y01425702D01*
X00579622D01*
X00577083Y01428241D01*
X00592318Y01440937D02*
X00602475D01*
Y01438398D01*
X00592318Y01428241D01*
Y01425702D01*
X00614680Y01631950D02*
Y01647185D01*
X00622298D01*
X00624837Y01644646D01*
Y01639568D01*
X00622298Y01637028D01*
X00614680D01*
X00619758D02*
X00624837Y01631950D01*
X00629915Y01644646D02*
X00632454Y01647185D01*
X00637533D01*
X00640072Y01644646D01*
Y01642107D01*
X00637533Y01639568D01*
X00634993D01*
X00637533D01*
X00640072Y01637028D01*
Y01634489D01*
X00637533Y01631950D01*
X00632454D01*
X00629915Y01634489D01*
X00655307Y01647185D02*
X00650229Y01644646D01*
X00645150Y01639568D01*
Y01634489D01*
X00647689Y01631950D01*
X00652768D01*
X00655307Y01634489D01*
Y01637028D01*
X00652768Y01639568D01*
X00645150D01*
X00643890Y01670050D02*
Y01685285D01*
X00651507D01*
X00654047Y01682746D01*
Y01677668D01*
X00651507Y01675128D01*
X00643890D01*
X00648968D02*
X00654047Y01670050D01*
X00659125Y01682746D02*
X00661664Y01685285D01*
X00666743D01*
X00669282Y01682746D01*
Y01680207D01*
X00666743Y01677668D01*
X00664203D01*
X00666743D01*
X00669282Y01675128D01*
Y01672589D01*
X00666743Y01670050D01*
X00661664D01*
X00659125Y01672589D01*
X00684517Y01685285D02*
X00674360D01*
Y01677668D01*
X00679438Y01680207D01*
X00681978D01*
X00684517Y01677668D01*
Y01672589D01*
X00681978Y01670050D01*
X00676899D01*
X00674360Y01672589D01*
X00643890Y01593850D02*
Y01609085D01*
X00651507D01*
X00654047Y01606546D01*
Y01601467D01*
X00651507Y01598928D01*
X00643890D01*
X00648968D02*
X00654047Y01593850D01*
X00659125Y01606546D02*
X00661664Y01609085D01*
X00666743D01*
X00669282Y01606546D01*
Y01604007D01*
X00666743Y01601467D01*
X00664203D01*
X00666743D01*
X00669282Y01598928D01*
Y01596389D01*
X00666743Y01593850D01*
X00661664D01*
X00659125Y01596389D01*
X00681978Y01593850D02*
Y01609085D01*
X00674360Y01601467D01*
X00684517D01*
X00833628Y01307592D02*
Y01322827D01*
X00841245D01*
X00843785Y01320288D01*
Y01315210D01*
X00841245Y01312670D01*
X00833628D01*
X00838706D02*
X00843785Y01307592D01*
X00848863Y01320288D02*
X00851402Y01322827D01*
X00856481D01*
X00859020Y01320288D01*
Y01317749D01*
X00856481Y01315210D01*
X00853941D01*
X00856481D01*
X00859020Y01312670D01*
Y01310131D01*
X00856481Y01307592D01*
X00851402D01*
X00848863Y01310131D01*
X00864098Y01320288D02*
X00866637Y01322827D01*
X00871716D01*
X00874255Y01320288D01*
Y01317749D01*
X00871716Y01315210D01*
X00869176D01*
X00871716D01*
X00874255Y01312670D01*
Y01310131D01*
X00871716Y01307592D01*
X00866637D01*
X00864098Y01310131D01*
X00928878Y01196340D02*
Y01211575D01*
X00936496D01*
X00939035Y01209036D01*
Y01203958D01*
X00936496Y01201418D01*
X00928878D01*
X00951731Y01196340D02*
Y01211575D01*
X00944113Y01203958D01*
X00954270D01*
X00612137Y01884929D02*
X00607058D01*
X00609598D01*
Y01872233D01*
X00607058Y01869694D01*
X00604519D01*
X00601980Y01872233D01*
X00627372Y01869694D02*
X00617215D01*
X00627372Y01879851D01*
Y01882390D01*
X00624833Y01884929D01*
X00619754D01*
X00617215Y01882390D01*
X00585724Y01520693D02*
Y01505458D01*
X00593341D01*
X00595881Y01507997D01*
Y01518154D01*
X00593341Y01520693D01*
X00585724D01*
X00611116D02*
X00606037Y01518154D01*
X00600959Y01513076D01*
Y01507997D01*
X00603498Y01505458D01*
X00608577D01*
X00611116Y01507997D01*
Y01510536D01*
X00608577Y01513076D01*
X00600959D01*
X00583184Y01315969D02*
Y01300734D01*
X00590802D01*
X00593341Y01303273D01*
Y01313430D01*
X00590802Y01315969D01*
X00583184D01*
X00608576D02*
X00598419D01*
Y01308351D01*
X00603497Y01310891D01*
X00606037D01*
X00608576Y01308351D01*
Y01303273D01*
X00606037Y01300734D01*
X00600958D01*
X00598419Y01303273D01*
X00765048Y01583177D02*
Y01567942D01*
X00772665D01*
X00775205Y01570481D01*
Y01580638D01*
X00772665Y01583177D01*
X00765048D01*
X00787901Y01567942D02*
Y01583177D01*
X00780283Y01575560D01*
X00790440D01*
X00766318Y01717797D02*
Y01702562D01*
X00773935D01*
X00776475Y01705101D01*
Y01715258D01*
X00773935Y01717797D01*
X00766318D01*
X00781553Y01715258D02*
X00784092Y01717797D01*
X00789171D01*
X00791710Y01715258D01*
Y01712719D01*
X00789171Y01710179D01*
X00786631D01*
X00789171D01*
X00791710Y01707640D01*
Y01705101D01*
X00789171Y01702562D01*
X00784092D01*
X00781553Y01705101D01*
X00551685Y01679952D02*
X00549146Y01682491D01*
X00544067D01*
X00541528Y01679952D01*
Y01669795D01*
X00544067Y01667256D01*
X00549146D01*
X00551685Y01669795D01*
X00556763Y01667256D02*
X00561841D01*
X00559302D01*
Y01682491D01*
X00556763Y01679952D01*
X00577076Y01667256D02*
Y01682491D01*
X00569459Y01674874D01*
X00579616D01*
X00889505Y01372866D02*
X00886965Y01375405D01*
X00881887D01*
X00879348Y01372866D01*
Y01362709D01*
X00881887Y01360170D01*
X00886965D01*
X00889505Y01362709D01*
X00894583Y01360170D02*
X00899661D01*
X00897122D01*
Y01375405D01*
X00894583Y01372866D01*
X00907279D02*
X00909818Y01375405D01*
X00914896D01*
X00917436Y01372866D01*
Y01370327D01*
X00914896Y01367787D01*
X00912357D01*
X00914896D01*
X00917436Y01365248D01*
Y01362709D01*
X00914896Y01360170D01*
X00909818D01*
X00907279Y01362709D01*
X00889505Y01531616D02*
X00886965Y01534155D01*
X00881887D01*
X00879348Y01531616D01*
Y01521459D01*
X00881887Y01518920D01*
X00886965D01*
X00889505Y01521459D01*
X00894583Y01518920D02*
X00899661D01*
X00897122D01*
Y01534155D01*
X00894583Y01531616D01*
X00917436Y01518920D02*
X00907279D01*
X00917436Y01529077D01*
Y01531616D01*
X00914896Y01534155D01*
X00909818D01*
X00907279Y01531616D01*
X00841245Y01394456D02*
X00838706Y01396995D01*
X00833627D01*
X00831088Y01394456D01*
Y01384299D01*
X00833627Y01381760D01*
X00838706D01*
X00841245Y01384299D01*
X00846323Y01381760D02*
X00851401D01*
X00848862D01*
Y01396995D01*
X00846323Y01394456D01*
X00859019Y01381760D02*
X00864097D01*
X00861558D01*
Y01396995D01*
X00859019Y01394456D01*
X00649475Y00679446D02*
X00646936Y00681985D01*
X00641857D01*
X00639318Y00679446D01*
Y00669289D01*
X00641857Y00666750D01*
X00646936D01*
X00649475Y00669289D01*
X00654553Y00666750D02*
X00659631D01*
X00657092D01*
Y00681985D01*
X00654553Y00679446D01*
X00704085Y00562606D02*
X00701545Y00565145D01*
X00696467D01*
X00693928Y00562606D01*
Y00552449D01*
X00696467Y00549910D01*
X00701545D01*
X00704085Y00552449D01*
X00719320Y00549910D02*
X00709163D01*
X00719320Y00560067D01*
Y00562606D01*
X00716781Y00565145D01*
X00711702D01*
X00709163Y00562606D01*
X00552955Y00951226D02*
X00550415Y00953765D01*
X00545337D01*
X00542798Y00951226D01*
Y00941069D01*
X00545337Y00938530D01*
X00550415D01*
X00552955Y00941069D01*
X00558033Y00951226D02*
X00560572Y00953765D01*
X00565651D01*
X00568190Y00951226D01*
Y00948687D01*
X00565651Y00946148D01*
X00563111D01*
X00565651D01*
X00568190Y00943608D01*
Y00941069D01*
X00565651Y00938530D01*
X00560572D01*
X00558033Y00941069D01*
X00552955Y00806446D02*
X00550415Y00808985D01*
X00545337D01*
X00542798Y00806446D01*
Y00796289D01*
X00545337Y00793750D01*
X00550415D01*
X00552955Y00796289D01*
X00565651Y00793750D02*
Y00808985D01*
X00558033Y00801367D01*
X00568190D01*
X01482341Y01683254D02*
X01479801Y01685793D01*
X01474723D01*
X01472184Y01683254D01*
Y01673097D01*
X01474723Y01670558D01*
X01479801D01*
X01482341Y01673097D01*
X01497576Y01685793D02*
X01487419D01*
Y01678176D01*
X01492497Y01680715D01*
X01495037D01*
X01497576Y01678176D01*
Y01673097D01*
X01495037Y01670558D01*
X01489958D01*
X01487419Y01673097D01*
X01486151Y01431794D02*
X01483611Y01434333D01*
X01478533D01*
X01475994Y01431794D01*
Y01421637D01*
X01478533Y01419098D01*
X01483611D01*
X01486151Y01421637D01*
X01501386Y01434333D02*
X01496307Y01431794D01*
X01491229Y01426716D01*
Y01421637D01*
X01493768Y01419098D01*
X01498847D01*
X01501386Y01421637D01*
Y01424176D01*
X01498847Y01426716D01*
X01491229D01*
X01483611Y01182874D02*
X01481071Y01185413D01*
X01475993D01*
X01473454Y01182874D01*
Y01172717D01*
X01475993Y01170178D01*
X01481071D01*
X01483611Y01172717D01*
X01488689Y01185413D02*
X01498846D01*
Y01182874D01*
X01488689Y01172717D01*
Y01170178D01*
X01483611Y00945384D02*
X01481071Y00947923D01*
X01475993D01*
X01473454Y00945384D01*
Y00935227D01*
X01475993Y00932688D01*
X01481071D01*
X01483611Y00935227D01*
X01488689Y00945384D02*
X01491228Y00947923D01*
X01496307D01*
X01498846Y00945384D01*
Y00942845D01*
X01496307Y00940305D01*
X01498846Y00937766D01*
Y00935227D01*
X01496307Y00932688D01*
X01491228D01*
X01488689Y00935227D01*
Y00937766D01*
X01491228Y00940305D01*
X01488689Y00942845D01*
Y00945384D01*
X01491228Y00940305D02*
X01496307D01*
X01483611Y00704084D02*
X01481071Y00706623D01*
X01475993D01*
X01473454Y00704084D01*
Y00693927D01*
X01475993Y00691388D01*
X01481071D01*
X01483611Y00693927D01*
X01488689D02*
X01491228Y00691388D01*
X01496307D01*
X01498846Y00693927D01*
Y00704084D01*
X01496307Y00706623D01*
X01491228D01*
X01488689Y00704084D01*
Y00701545D01*
X01491228Y00699006D01*
X01498846D01*
X00781555Y00863596D02*
X00779016Y00866135D01*
X00773937D01*
X00771398Y00863596D01*
Y00853439D01*
X00773937Y00850900D01*
X00779016D01*
X00781555Y00853439D01*
X00786633Y00850900D02*
X00791711D01*
X00789172D01*
Y00866135D01*
X00786633Y00863596D01*
X00799329D02*
X00801868Y00866135D01*
X00806946D01*
X00809486Y00863596D01*
Y00853439D01*
X00806946Y00850900D01*
X00801868D01*
X00799329Y00853439D01*
Y00863596D01*
X00606090Y00721655D02*
Y00706420D01*
X00613708D01*
X00616247Y00708959D01*
Y00719116D01*
X00613708Y00721655D01*
X00606090D01*
X00621325Y00706420D02*
X00626404D01*
X00623865D01*
Y00721655D01*
X00621325Y00719116D01*
X00547624Y00739389D02*
Y00724154D01*
X00555242D01*
X00557781Y00726693D01*
Y00736850D01*
X00555242Y00739389D01*
X00547624D01*
X00573016Y00724154D02*
X00562859D01*
X00573016Y00734311D01*
Y00736850D01*
X00570477Y00739389D01*
X00565398D01*
X00562859Y00736850D01*
X00546397Y00647995D02*
X00541319D01*
X00543858D01*
Y00635299D01*
X00541319Y00632760D01*
X00538779D01*
X00536240Y00635299D01*
X00551475Y00632760D02*
X00556554D01*
X00554015D01*
Y00647995D01*
X00551475Y00645456D01*
X00700278Y01070356D02*
Y01085591D01*
X00707896D01*
X00710435Y01083052D01*
Y01077973D01*
X00707896Y01075434D01*
X00700278D01*
X00715513Y01070356D02*
X00720591D01*
X00718052D01*
Y01085591D01*
X00715513Y01083052D01*
X01627378Y01526540D02*
Y01541775D01*
X01634996D01*
X01637535Y01539236D01*
Y01534158D01*
X01634996Y01531618D01*
X01627378D01*
X01652770Y01526540D02*
X01642613D01*
X01652770Y01536697D01*
Y01539236D01*
X01650231Y01541775D01*
X01645152D01*
X01642613Y01539236D01*
X00609600Y00751840D02*
Y00767075D01*
X00617217D01*
X00619757Y00764536D01*
Y00759457D01*
X00617217Y00756918D01*
X00609600D01*
X00614678D02*
X00619757Y00751840D01*
X00624835D02*
X00629913D01*
X00627374D01*
Y00767075D01*
X00624835Y00764536D01*
X01472190Y01576671D02*
X01487425D01*
Y01569053D01*
X01484886Y01566514D01*
X01479808D01*
X01477268Y01569053D01*
Y01576671D01*
Y01571592D02*
X01472190Y01566514D01*
Y01551279D02*
Y01561435D01*
X01482347Y01551279D01*
X01484886D01*
X01487425Y01553818D01*
Y01558896D01*
X01484886Y01561435D01*
X01435360Y01576671D02*
X01450595D01*
Y01569053D01*
X01448056Y01566514D01*
X01442978D01*
X01440438Y01569053D01*
Y01576671D01*
Y01571592D02*
X01435360Y01566514D01*
X01448056Y01561435D02*
X01450595Y01558896D01*
Y01553818D01*
X01448056Y01551279D01*
X01445517D01*
X01442978Y01553818D01*
Y01556357D01*
Y01553818D01*
X01440438Y01551279D01*
X01437899D01*
X01435360Y01553818D01*
Y01558896D01*
X01437899Y01561435D01*
X01396030Y01576370D02*
X01411265D01*
Y01568753D01*
X01408726Y01566214D01*
X01403648D01*
X01401109Y01568753D01*
Y01576370D01*
Y01571292D02*
X01396030Y01566214D01*
Y01553518D02*
X01411265D01*
X01403648Y01561135D01*
Y01550978D01*
X01357930Y01576370D02*
X01373165D01*
Y01568753D01*
X01370626Y01566214D01*
X01365548D01*
X01363009Y01568753D01*
Y01576370D01*
Y01571292D02*
X01357930Y01566214D01*
X01373165Y01550978D02*
Y01561135D01*
X01365548D01*
X01368087Y01556057D01*
Y01553518D01*
X01365548Y01550978D01*
X01360469D01*
X01357930Y01553518D01*
Y01558596D01*
X01360469Y01561135D01*
X01319830Y01576370D02*
X01335065D01*
Y01568753D01*
X01332526Y01566214D01*
X01327448D01*
X01324909Y01568753D01*
Y01576370D01*
Y01571292D02*
X01319830Y01566214D01*
X01335065Y01550978D02*
X01332526Y01556057D01*
X01327448Y01561135D01*
X01322369D01*
X01319830Y01558596D01*
Y01553518D01*
X01322369Y01550978D01*
X01324909D01*
X01327448Y01553518D01*
Y01561135D01*
X01474770Y01326180D02*
X01490005D01*
Y01318563D01*
X01487466Y01316024D01*
X01482388D01*
X01479849Y01318563D01*
Y01326180D01*
Y01321102D02*
X01474770Y01316024D01*
X01490005Y01310945D02*
Y01300788D01*
X01487466D01*
X01477309Y01310945D01*
X01474770D01*
X01437940Y01326180D02*
X01453175D01*
Y01318563D01*
X01450636Y01316024D01*
X01445558D01*
X01443019Y01318563D01*
Y01326180D01*
Y01321102D02*
X01437940Y01316024D01*
X01450636Y01310945D02*
X01453175Y01308406D01*
Y01303328D01*
X01450636Y01300788D01*
X01448097D01*
X01445558Y01303328D01*
X01443019Y01300788D01*
X01440479D01*
X01437940Y01303328D01*
Y01308406D01*
X01440479Y01310945D01*
X01443019D01*
X01445558Y01308406D01*
X01448097Y01310945D01*
X01450636D01*
X01445558Y01308406D02*
Y01303328D01*
X01398570Y01326180D02*
X01413805D01*
Y01318563D01*
X01411266Y01316024D01*
X01406188D01*
X01403649Y01318563D01*
Y01326180D01*
Y01321102D02*
X01398570Y01316024D01*
X01401109Y01310945D02*
X01398570Y01308406D01*
Y01303328D01*
X01401109Y01300788D01*
X01411266D01*
X01413805Y01303328D01*
Y01308406D01*
X01411266Y01310945D01*
X01408727D01*
X01406188Y01308406D01*
Y01300788D01*
X01360470Y01326180D02*
X01375705D01*
Y01318563D01*
X01373166Y01316024D01*
X01368088D01*
X01365549Y01318563D01*
Y01326180D01*
Y01321102D02*
X01360470Y01316024D01*
Y01310945D02*
Y01305867D01*
Y01308406D01*
X01375705D01*
X01373166Y01310945D01*
Y01298249D02*
X01375705Y01295710D01*
Y01290632D01*
X01373166Y01288092D01*
X01363009D01*
X01360470Y01290632D01*
Y01295710D01*
X01363009Y01298249D01*
X01373166D01*
X01322370Y01326180D02*
X01337605D01*
Y01318563D01*
X01335066Y01316024D01*
X01329988D01*
X01327449Y01318563D01*
Y01326180D01*
Y01321102D02*
X01322370Y01316024D01*
Y01310945D02*
Y01305867D01*
Y01308406D01*
X01337605D01*
X01335066Y01310945D01*
X01322370Y01298249D02*
Y01293171D01*
Y01295710D01*
X01337605D01*
X01335066Y01298249D01*
X01473500Y01075990D02*
X01488735D01*
Y01068373D01*
X01486196Y01065834D01*
X01481118D01*
X01478579Y01068373D01*
Y01075990D01*
Y01070912D02*
X01473500Y01065834D01*
Y01060755D02*
Y01055677D01*
Y01058216D01*
X01488735D01*
X01486196Y01060755D01*
X01473500Y01037903D02*
Y01048059D01*
X01483657Y01037903D01*
X01486196D01*
X01488735Y01040442D01*
Y01045520D01*
X01486196Y01048059D01*
X01436670Y01075990D02*
X01451905D01*
Y01068373D01*
X01449366Y01065834D01*
X01444288D01*
X01441749Y01068373D01*
Y01075990D01*
Y01070912D02*
X01436670Y01065834D01*
Y01060755D02*
Y01055677D01*
Y01058216D01*
X01451905D01*
X01449366Y01060755D01*
Y01048059D02*
X01451905Y01045520D01*
Y01040442D01*
X01449366Y01037903D01*
X01446827D01*
X01444288Y01040442D01*
Y01042981D01*
Y01040442D01*
X01441749Y01037903D01*
X01439209D01*
X01436670Y01040442D01*
Y01045520D01*
X01439209Y01048059D01*
X01397300Y01075990D02*
X01412535D01*
Y01068373D01*
X01409996Y01065834D01*
X01404918D01*
X01402379Y01068373D01*
Y01075990D01*
Y01070912D02*
X01397300Y01065834D01*
Y01060755D02*
Y01055677D01*
Y01058216D01*
X01412535D01*
X01409996Y01060755D01*
X01397300Y01040442D02*
X01412535D01*
X01404918Y01048059D01*
Y01037903D01*
X01359200Y01075990D02*
X01374435D01*
Y01068373D01*
X01371896Y01065834D01*
X01366818D01*
X01364279Y01068373D01*
Y01075990D01*
Y01070912D02*
X01359200Y01065834D01*
Y01060755D02*
Y01055677D01*
Y01058216D01*
X01374435D01*
X01371896Y01060755D01*
X01374435Y01037903D02*
Y01048059D01*
X01366818D01*
X01369357Y01042981D01*
Y01040442D01*
X01366818Y01037903D01*
X01361739D01*
X01359200Y01040442D01*
Y01045520D01*
X01361739Y01048059D01*
X01321100Y01075990D02*
X01336335D01*
Y01068373D01*
X01333796Y01065834D01*
X01328718D01*
X01326179Y01068373D01*
Y01075990D01*
Y01070912D02*
X01321100Y01065834D01*
Y01060755D02*
Y01055677D01*
Y01058216D01*
X01336335D01*
X01333796Y01060755D01*
X01336335Y01037903D02*
X01333796Y01042981D01*
X01328718Y01048059D01*
X01323639D01*
X01321100Y01045520D01*
Y01040442D01*
X01323639Y01037903D01*
X01326179D01*
X01328718Y01040442D01*
Y01048059D01*
X01473500Y00838500D02*
X01488735D01*
Y00830883D01*
X01486196Y00828344D01*
X01481118D01*
X01478579Y00830883D01*
Y00838500D01*
Y00833422D02*
X01473500Y00828344D01*
Y00823265D02*
Y00818187D01*
Y00820726D01*
X01488735D01*
X01486196Y00823265D01*
X01488735Y00810569D02*
Y00800413D01*
X01486196D01*
X01476039Y00810569D01*
X01473500D01*
X01436670Y00838500D02*
X01451905D01*
Y00830883D01*
X01449366Y00828344D01*
X01444288D01*
X01441749Y00830883D01*
Y00838500D01*
Y00833422D02*
X01436670Y00828344D01*
Y00823265D02*
Y00818187D01*
Y00820726D01*
X01451905D01*
X01449366Y00823265D01*
Y00810569D02*
X01451905Y00808030D01*
Y00802952D01*
X01449366Y00800413D01*
X01446827D01*
X01444288Y00802952D01*
X01441749Y00800413D01*
X01439209D01*
X01436670Y00802952D01*
Y00808030D01*
X01439209Y00810569D01*
X01441749D01*
X01444288Y00808030D01*
X01446827Y00810569D01*
X01449366D01*
X01444288Y00808030D02*
Y00802952D01*
X01397300Y00838500D02*
X01412535D01*
Y00830883D01*
X01409996Y00828344D01*
X01404918D01*
X01402379Y00830883D01*
Y00838500D01*
Y00833422D02*
X01397300Y00828344D01*
Y00823265D02*
Y00818187D01*
Y00820726D01*
X01412535D01*
X01409996Y00823265D01*
X01399839Y00810569D02*
X01397300Y00808030D01*
Y00802952D01*
X01399839Y00800413D01*
X01409996D01*
X01412535Y00802952D01*
Y00808030D01*
X01409996Y00810569D01*
X01407457D01*
X01404918Y00808030D01*
Y00800413D01*
X01359200Y00838500D02*
X01374435D01*
Y00830883D01*
X01371896Y00828344D01*
X01366818D01*
X01364279Y00830883D01*
Y00838500D01*
Y00833422D02*
X01359200Y00828344D01*
Y00813108D02*
Y00823265D01*
X01369357Y00813108D01*
X01371896D01*
X01374435Y00815648D01*
Y00820726D01*
X01371896Y00823265D01*
Y00808030D02*
X01374435Y00805491D01*
Y00800413D01*
X01371896Y00797873D01*
X01361739D01*
X01359200Y00800413D01*
Y00805491D01*
X01361739Y00808030D01*
X01371896D01*
X01321100Y00838500D02*
X01336335D01*
Y00830883D01*
X01333796Y00828344D01*
X01328718D01*
X01326179Y00830883D01*
Y00838500D01*
Y00833422D02*
X01321100Y00828344D01*
Y00813108D02*
Y00823265D01*
X01331257Y00813108D01*
X01333796D01*
X01336335Y00815648D01*
Y00820726D01*
X01333796Y00823265D01*
X01321100Y00808030D02*
Y00802952D01*
Y00805491D01*
X01336335D01*
X01333796Y00808030D01*
X01473500Y00598470D02*
X01488735D01*
Y00590853D01*
X01486196Y00588313D01*
X01481118D01*
X01478579Y00590853D01*
Y00598470D01*
Y00593392D02*
X01473500Y00588313D01*
Y00573078D02*
Y00583235D01*
X01483657Y00573078D01*
X01486196D01*
X01488735Y00575618D01*
Y00580696D01*
X01486196Y00583235D01*
X01473500Y00557843D02*
Y00568000D01*
X01483657Y00557843D01*
X01486196D01*
X01488735Y00560382D01*
Y00565461D01*
X01486196Y00568000D01*
X01436670Y00598470D02*
X01451905D01*
Y00590853D01*
X01449366Y00588313D01*
X01444288D01*
X01441749Y00590853D01*
Y00598470D01*
Y00593392D02*
X01436670Y00588313D01*
Y00573078D02*
Y00583235D01*
X01446827Y00573078D01*
X01449366D01*
X01451905Y00575618D01*
Y00580696D01*
X01449366Y00583235D01*
Y00568000D02*
X01451905Y00565461D01*
Y00560382D01*
X01449366Y00557843D01*
X01446827D01*
X01444288Y00560382D01*
Y00562922D01*
Y00560382D01*
X01441749Y00557843D01*
X01439209D01*
X01436670Y00560382D01*
Y00565461D01*
X01439209Y00568000D01*
X01397300Y00598470D02*
X01412535D01*
Y00590853D01*
X01409996Y00588313D01*
X01404918D01*
X01402379Y00590853D01*
Y00598470D01*
Y00593392D02*
X01397300Y00588313D01*
Y00573078D02*
Y00583235D01*
X01407457Y00573078D01*
X01409996D01*
X01412535Y00575618D01*
Y00580696D01*
X01409996Y00583235D01*
X01397300Y00560382D02*
X01412535D01*
X01404918Y00568000D01*
Y00557843D01*
X01359200Y00598470D02*
X01374435D01*
Y00590853D01*
X01371896Y00588313D01*
X01366818D01*
X01364279Y00590853D01*
Y00598470D01*
Y00593392D02*
X01359200Y00588313D01*
Y00573078D02*
Y00583235D01*
X01369357Y00573078D01*
X01371896D01*
X01374435Y00575618D01*
Y00580696D01*
X01371896Y00583235D01*
X01374435Y00557843D02*
Y00568000D01*
X01366818D01*
X01369357Y00562922D01*
Y00560382D01*
X01366818Y00557843D01*
X01361739D01*
X01359200Y00560382D01*
Y00565461D01*
X01361739Y00568000D01*
X01321100Y00598470D02*
X01336335D01*
Y00590853D01*
X01333796Y00588313D01*
X01328718D01*
X01326179Y00590853D01*
Y00598470D01*
Y00593392D02*
X01321100Y00588313D01*
Y00573078D02*
Y00583235D01*
X01331257Y00573078D01*
X01333796D01*
X01336335Y00575618D01*
Y00580696D01*
X01333796Y00583235D01*
X01336335Y00557843D02*
X01333796Y00562922D01*
X01328718Y00568000D01*
X01323639D01*
X01321100Y00565461D01*
Y00560382D01*
X01323639Y00557843D01*
X01326179D01*
X01328718Y00560382D01*
Y00568000D01*
X00655828Y00920242D02*
Y00935477D01*
X00663446D01*
X00665985Y00932938D01*
Y00927859D01*
X00663446Y00925320D01*
X00655828D01*
X00660906D02*
X00665985Y00920242D01*
X00681220D02*
X00671063D01*
X00681220Y00930399D01*
Y00932938D01*
X00678681Y00935477D01*
X00673602D01*
X00671063Y00932938D01*
X00686298Y00935477D02*
X00696455D01*
Y00932938D01*
X00686298Y00922781D01*
Y00920242D01*
X01036320Y01572260D02*
Y01587495D01*
X01043938D01*
X01046477Y01584956D01*
Y01579877D01*
X01043938Y01577338D01*
X01036320D01*
X01041398D02*
X01046477Y01572260D01*
X01061712D02*
X01051555D01*
X01061712Y01582417D01*
Y01584956D01*
X01059173Y01587495D01*
X01054094D01*
X01051555Y01584956D01*
X01066790D02*
X01069329Y01587495D01*
X01074408D01*
X01076947Y01584956D01*
Y01582417D01*
X01074408Y01579877D01*
X01076947Y01577338D01*
Y01574799D01*
X01074408Y01572260D01*
X01069329D01*
X01066790Y01574799D01*
Y01577338D01*
X01069329Y01579877D01*
X01066790Y01582417D01*
Y01584956D01*
X01069329Y01579877D02*
X01074408D01*
X01036320Y01319530D02*
Y01334765D01*
X01043938D01*
X01046477Y01332226D01*
Y01327148D01*
X01043938Y01324608D01*
X01036320D01*
X01041398D02*
X01046477Y01319530D01*
X01061712D02*
X01051555D01*
X01061712Y01329687D01*
Y01332226D01*
X01059173Y01334765D01*
X01054094D01*
X01051555Y01332226D01*
X01066790Y01322069D02*
X01069329Y01319530D01*
X01074408D01*
X01076947Y01322069D01*
Y01332226D01*
X01074408Y01334765D01*
X01069329D01*
X01066790Y01332226D01*
Y01329687D01*
X01069329Y01327148D01*
X01076947D01*
X01036320Y01071880D02*
Y01087115D01*
X01043938D01*
X01046477Y01084576D01*
Y01079498D01*
X01043938Y01076958D01*
X01036320D01*
X01041398D02*
X01046477Y01071880D01*
X01051555Y01084576D02*
X01054094Y01087115D01*
X01059173D01*
X01061712Y01084576D01*
Y01082037D01*
X01059173Y01079498D01*
X01056633D01*
X01059173D01*
X01061712Y01076958D01*
Y01074419D01*
X01059173Y01071880D01*
X01054094D01*
X01051555Y01074419D01*
X01066790Y01084576D02*
X01069329Y01087115D01*
X01074408D01*
X01076947Y01084576D01*
Y01074419D01*
X01074408Y01071880D01*
X01069329D01*
X01066790Y01074419D01*
Y01084576D01*
X01036320Y00833120D02*
Y00848355D01*
X01043938D01*
X01046477Y00845816D01*
Y00840738D01*
X01043938Y00838198D01*
X01036320D01*
X01041398D02*
X01046477Y00833120D01*
X01051555Y00845816D02*
X01054094Y00848355D01*
X01059173D01*
X01061712Y00845816D01*
Y00843277D01*
X01059173Y00840738D01*
X01056633D01*
X01059173D01*
X01061712Y00838198D01*
Y00835659D01*
X01059173Y00833120D01*
X01054094D01*
X01051555Y00835659D01*
X01066790Y00833120D02*
X01071869D01*
X01069329D01*
Y00848355D01*
X01066790Y00845816D01*
X01036320Y00595630D02*
Y00610865D01*
X01043938D01*
X01046477Y00608326D01*
Y00603247D01*
X01043938Y00600708D01*
X01036320D01*
X01041398D02*
X01046477Y00595630D01*
X01051555Y00608326D02*
X01054094Y00610865D01*
X01059173D01*
X01061712Y00608326D01*
Y00605787D01*
X01059173Y00603247D01*
X01056633D01*
X01059173D01*
X01061712Y00600708D01*
Y00598169D01*
X01059173Y00595630D01*
X01054094D01*
X01051555Y00598169D01*
X01076947Y00595630D02*
X01066790D01*
X01076947Y00605787D01*
Y00608326D01*
X01074408Y00610865D01*
X01069329D01*
X01066790Y00608326D01*
X00559813Y01104388D02*
X00557273Y01106927D01*
X00552195D01*
X00549656Y01104388D01*
Y01101849D01*
X00552195Y01099309D01*
X00557273D01*
X00559813Y01096770D01*
Y01094231D01*
X00557273Y01091692D01*
X00552195D01*
X00549656Y01094231D01*
X00564891Y01091692D02*
X00569969D01*
X00567430D01*
Y01106927D01*
X00564891Y01104388D01*
X00561083Y01240278D02*
X00558544Y01242817D01*
X00553465D01*
X00550926Y01240278D01*
Y01237739D01*
X00553465Y01235200D01*
X00558544D01*
X00561083Y01232660D01*
Y01230121D01*
X00558544Y01227582D01*
X00553465D01*
X00550926Y01230121D01*
X00576318Y01227582D02*
X00566161D01*
X00576318Y01237739D01*
Y01240278D01*
X00573779Y01242817D01*
X00568700D01*
X00566161Y01240278D01*
X01131570Y01717289D02*
X01141727D01*
X01136648D01*
Y01702054D01*
X01146805D02*
X01151883D01*
X01149344D01*
Y01717289D01*
X01146805Y01714750D01*
X01134110Y01467099D02*
X01144267D01*
X01139188D01*
Y01451864D01*
X01159502D02*
X01149345D01*
X01159502Y01462021D01*
Y01464560D01*
X01156963Y01467099D01*
X01151884D01*
X01149345Y01464560D01*
X01132840Y01216909D02*
X01142997D01*
X01137918D01*
Y01201674D01*
X01148075Y01214370D02*
X01150614Y01216909D01*
X01155693D01*
X01158232Y01214370D01*
Y01211831D01*
X01155693Y01209292D01*
X01153153D01*
X01155693D01*
X01158232Y01206752D01*
Y01204213D01*
X01155693Y01201674D01*
X01150614D01*
X01148075Y01204213D01*
X01132840Y00979419D02*
X01142997D01*
X01137918D01*
Y00964184D01*
X01155693D02*
Y00979419D01*
X01148075Y00971802D01*
X01158232D01*
X01132840Y00739389D02*
X01142997D01*
X01137918D01*
Y00724154D01*
X01158232Y00739389D02*
X01148075D01*
Y00731771D01*
X01153153Y00734311D01*
X01155693D01*
X01158232Y00731771D01*
Y00726693D01*
X01155693Y00724154D01*
X01150614D01*
X01148075Y00726693D01*
X00805942Y01105657D02*
Y01092961D01*
X00808481Y01090422D01*
X00813559D01*
X00816099Y01092961D01*
Y01105657D01*
X00821177Y01090422D02*
X00826255D01*
X00823716D01*
Y01105657D01*
X00821177Y01103118D01*
X01206500Y01708145D02*
Y01695449D01*
X01209039Y01692910D01*
X01214118D01*
X01216657Y01695449D01*
Y01708145D01*
X01231892Y01692910D02*
X01221735D01*
X01231892Y01703067D01*
Y01705606D01*
X01229353Y01708145D01*
X01224274D01*
X01221735Y01705606D01*
X01209040Y01457955D02*
Y01445259D01*
X01211579Y01442720D01*
X01216657D01*
X01219197Y01445259D01*
Y01457955D01*
X01224275Y01455416D02*
X01226814Y01457955D01*
X01231893D01*
X01234432Y01455416D01*
Y01452877D01*
X01231893Y01450338D01*
X01229353D01*
X01231893D01*
X01234432Y01447798D01*
Y01445259D01*
X01231893Y01442720D01*
X01226814D01*
X01224275Y01445259D01*
X01207770Y01207765D02*
Y01195069D01*
X01210309Y01192530D01*
X01215387D01*
X01217927Y01195069D01*
Y01207765D01*
X01230623Y01192530D02*
Y01207765D01*
X01223005Y01200147D01*
X01233162D01*
X01207770Y00970275D02*
Y00957579D01*
X01210309Y00955040D01*
X01215387D01*
X01217927Y00957579D01*
Y00970275D01*
X01233162D02*
X01223005D01*
Y00962657D01*
X01228083Y00965197D01*
X01230623D01*
X01233162Y00962657D01*
Y00957579D01*
X01230623Y00955040D01*
X01225544D01*
X01223005Y00957579D01*
X01207770Y00728975D02*
Y00716279D01*
X01210309Y00713740D01*
X01215387D01*
X01217927Y00716279D01*
Y00728975D01*
X01233162D02*
X01228083Y00726436D01*
X01223005Y00721357D01*
Y00716279D01*
X01225544Y00713740D01*
X01230623D01*
X01233162Y00716279D01*
Y00718818D01*
X01230623Y00721357D01*
X01223005D01*
X00688594Y00678937D02*
Y00666241D01*
X00691133Y00663702D01*
X00696211D01*
X00698751Y00666241D01*
Y00678937D01*
X00703829D02*
X00713986D01*
Y00676398D01*
X00703829Y00666241D01*
Y00663702D01*
X00893318Y01757675D02*
Y01742440D01*
X00898396Y01747518D01*
X00903475Y01742440D01*
Y01757675D01*
X00908553Y01742440D02*
X00913631D01*
X00911092D01*
Y01757675D01*
X00908553Y01755136D01*
X00730758Y00866135D02*
Y00850900D01*
X00735836Y00855978D01*
X00740915Y00850900D01*
Y00866135D01*
X00756150Y00850900D02*
X00745993D01*
X00756150Y00861057D01*
Y00863596D01*
X00753611Y00866135D01*
X00748532D01*
X00745993Y00863596D01*
X00553212Y00907029D02*
Y00904490D01*
X00558290Y00899411D01*
X00563369Y00904490D01*
Y00907029D01*
X00558290Y00899411D02*
Y00891794D01*
X00568447D02*
X00573525D01*
X00570986D01*
Y00907029D01*
X00568447Y00904490D01*
D41*
X00769920Y01136950D02*
G03*
X00757220Y01136950I-00006350J00000000D01*
G01*
X00553611Y01630284D02*
G03*
X00588665Y01627850I00018189J00008317D01*
G01*
Y01649350D02*
G03*
X00553611Y01646917I-00016865J-00010750D01*
G01*
X00881680Y01081910D02*
G03*
X00894380Y01081910I00006350J00000000D01*
G01*
X01497529Y00648907D02*
G03*
X01497692Y00672353I-00010059J00011793D01*
G01*
X01477249Y00672253D02*
G03*
X01477411Y00648807I00010221J-00011652D01*
G01*
X01466340Y00665780D02*
G03*
X01466340Y00653080I00000000J-00006350D01*
G01*
X01497529Y00890207D02*
G03*
X01497692Y00913652I-00010059J00011793D01*
G01*
X01477249Y00913553D02*
G03*
X01477411Y00890107I00010221J-00011652D01*
G01*
X01466340Y00907080D02*
G03*
X01466340Y00894380I00000000J-00006350D01*
G01*
X01497529Y01127697D02*
G03*
X01497692Y01151143I-00010059J00011793D01*
G01*
X01477249Y01151043D02*
G03*
X01477411Y01127597I00010221J-00011652D01*
G01*
X01466340Y01144570D02*
G03*
X01466340Y01131870I00000000J-00006350D01*
G01*
X01500069Y01376617D02*
G03*
X01500232Y01400063I-00010059J00011793D01*
G01*
X01479789Y01399963D02*
G03*
X01479951Y01376517I00010221J-00011652D01*
G01*
X01467610Y01394760D02*
G03*
X01467610Y01382060I00000000J-00006350D01*
G01*
X01496259Y01628077D02*
G03*
X01496422Y01651523I-00010059J00011793D01*
G01*
X01475979Y01651423D02*
G03*
X01476142Y01627977I00010221J-00011652D01*
G01*
X01465070Y01644950D02*
G03*
X01465070Y01632250I00000000J-00006350D01*
G01*
X01484829Y01509967D02*
G03*
X01484992Y01533412I-00010059J00011793D01*
G01*
X01464549Y01533313D02*
G03*
X01464711Y01509867I00010221J-00011652D01*
G01*
X01446729Y01509967D02*
G03*
X01446892Y01533412I-00010059J00011793D01*
G01*
X01426449Y01533313D02*
G03*
X01426611Y01509867I00010221J-00011652D01*
G01*
X01408629Y01509967D02*
G03*
X01408792Y01533412I-00010059J00011793D01*
G01*
X01388349Y01533313D02*
G03*
X01388512Y01509867I00010221J-00011652D01*
G01*
X01370529Y01509967D02*
G03*
X01370692Y01533412I-00010059J00011793D01*
G01*
X01350249Y01533313D02*
G03*
X01350412Y01509867I00010221J-00011652D01*
G01*
X01332429Y01509967D02*
G03*
X01332592Y01533412I-00010059J00011793D01*
G01*
X01312149Y01533313D02*
G03*
X01312312Y01509867I00010221J-00011652D01*
G01*
X01487369Y01260037D02*
G03*
X01487532Y01283483I-00010059J00011793D01*
G01*
X01467089Y01283383D02*
G03*
X01467251Y01259937I00010221J-00011652D01*
G01*
X01449269Y01259777D02*
G03*
X01449432Y01283223I-00010059J00011793D01*
G01*
X01428989Y01283123D02*
G03*
X01429151Y01259677I00010221J-00011652D01*
G01*
X01411169Y01259777D02*
G03*
X01411332Y01283223I-00010059J00011793D01*
G01*
X01390889Y01283123D02*
G03*
X01391051Y01259677I00010221J-00011652D01*
G01*
X01334969Y01259777D02*
G03*
X01335132Y01283223I-00010059J00011793D01*
G01*
X01314689Y01283123D02*
G03*
X01314852Y01259677I00010221J-00011652D01*
G01*
X01373069Y01259777D02*
G03*
X01373232Y01283223I-00010059J00011793D01*
G01*
X01352789Y01283123D02*
G03*
X01352952Y01259677I00010221J-00011652D01*
G01*
X01486099Y01009587D02*
G03*
X01486262Y01033033I-00010059J00011793D01*
G01*
X01465819Y01032933D02*
G03*
X01465981Y01009487I00010221J-00011652D01*
G01*
X01447999Y01009587D02*
G03*
X01448162Y01033033I-00010059J00011793D01*
G01*
X01427719Y01032933D02*
G03*
X01427881Y01009487I00010221J-00011652D01*
G01*
X01371799Y01009587D02*
G03*
X01371962Y01033033I-00010059J00011793D01*
G01*
X01351519Y01032933D02*
G03*
X01351682Y01009487I00010221J-00011652D01*
G01*
X01409899Y01009587D02*
G03*
X01410062Y01033033I-00010059J00011793D01*
G01*
X01389619Y01032933D02*
G03*
X01389781Y01009487I00010221J-00011652D01*
G01*
X01333699Y01009587D02*
G03*
X01333862Y01033033I-00010059J00011793D01*
G01*
X01313419Y01032933D02*
G03*
X01313582Y01009487I00010221J-00011652D01*
G01*
X01486099Y00772097D02*
G03*
X01486262Y00795543I-00010059J00011793D01*
G01*
X01465819Y00795443D02*
G03*
X01465981Y00771997I00010221J-00011652D01*
G01*
X01409899Y00772097D02*
G03*
X01410062Y00795543I-00010059J00011793D01*
G01*
X01389619Y00795443D02*
G03*
X01389781Y00771997I00010221J-00011652D01*
G01*
X01371799Y00772097D02*
G03*
X01371962Y00795543I-00010059J00011793D01*
G01*
X01351519Y00795443D02*
G03*
X01351682Y00771997I00010221J-00011652D01*
G01*
X01333699Y00772097D02*
G03*
X01333862Y00795543I-00010059J00011793D01*
G01*
X01313419Y00795443D02*
G03*
X01313582Y00771997I00010221J-00011652D01*
G01*
X01447999Y00772097D02*
G03*
X01448162Y00795543I-00010059J00011793D01*
G01*
X01427719Y00795443D02*
G03*
X01427881Y00771997I00010221J-00011652D01*
G01*
X01333699Y00532067D02*
G03*
X01333862Y00555513I-00010059J00011793D01*
G01*
X01313419Y00555413D02*
G03*
X01313582Y00531967I00010221J-00011652D01*
G01*
X01371799Y00532067D02*
G03*
X01371962Y00555513I-00010059J00011793D01*
G01*
X01351519Y00555413D02*
G03*
X01351682Y00531967I00010221J-00011652D01*
G01*
X01409899Y00532067D02*
G03*
X01410062Y00555513I-00010059J00011793D01*
G01*
X01389619Y00555413D02*
G03*
X01389781Y00531967I00010221J-00011652D01*
G01*
X01447999Y00532067D02*
G03*
X01448162Y00555513I-00010059J00011793D01*
G01*
X01427719Y00555413D02*
G03*
X01427881Y00531967I00010221J-00011652D01*
G01*
X01486099Y00532067D02*
G03*
X01486262Y00555513I-00010059J00011793D01*
G01*
X01465819Y00555413D02*
G03*
X01465981Y00531967I00010221J-00011652D01*
G01*
X00617520Y01389680D02*
X00637840D01*
Y01328720D02*
Y01389680D01*
X00617520Y01328720D02*
X00637840D01*
X00617520D02*
Y01389680D01*
X00627680D02*
Y01399840D01*
Y01318560D02*
Y01328720D01*
X00560370D02*
X00580690D01*
X00560370D02*
Y01389680D01*
X00580690D01*
Y01328720D02*
Y01389680D01*
X00570530Y01318560D02*
Y01328720D01*
Y01389680D02*
Y01399840D01*
X00877870Y01484930D02*
X00928670D01*
Y01510330D01*
X00877870D02*
X00928670D01*
X00877870Y01484930D02*
Y01510330D01*
Y01326180D02*
X00928670D01*
Y01351580D01*
X00877870D02*
X00928670D01*
X00877870Y01326180D02*
Y01351580D01*
X00828340Y01142030D02*
Y01167430D01*
X00879140D01*
Y01142030D02*
Y01167430D01*
X00828340Y01142030D02*
X00879140D01*
X00785820Y01136950D02*
Y01492550D01*
X00741320D02*
X00785820D01*
X00741320Y01136950D02*
Y01492550D01*
Y01136950D02*
X00757220D01*
X00769920D02*
X00785820D01*
X00659430Y01175050D02*
X00684830D01*
X00659430D02*
Y01225850D01*
X00684830D01*
Y01175050D02*
Y01225850D01*
X00832150Y01271570D02*
X00852470D01*
Y01210610D02*
Y01271570D01*
X00832150Y01210610D02*
X00852470D01*
X00832150D02*
Y01271570D01*
X00842310D02*
Y01281730D01*
Y01200450D02*
Y01210610D01*
X00927400Y01111550D02*
Y01187750D01*
Y01111550D02*
X00952800D01*
Y01187750D01*
X00927400D02*
X00952800D01*
X00893110Y01236010D02*
X00913430D01*
Y01175050D02*
Y01236010D01*
X00893110Y01175050D02*
X00913430D01*
X00893110D02*
Y01236010D01*
X00903270D02*
Y01246170D01*
Y01164890D02*
Y01175050D01*
X00855010Y01322370D02*
Y01373170D01*
X00829610D02*
X00855010D01*
X00829610Y01322370D02*
Y01373170D01*
Y01322370D02*
X00855010D01*
X00730550Y01564940D02*
Y01585260D01*
X00669590Y01564940D02*
X00730550D01*
X00669590D02*
Y01585260D01*
X00730550D01*
Y01575100D02*
X00740710D01*
X00659430D02*
X00669590D01*
X00730550Y01641140D02*
Y01661460D01*
X00669590Y01641140D02*
X00730550D01*
X00669590D02*
Y01661460D01*
X00730550D01*
Y01651300D02*
X00740710D01*
X00659430D02*
X00669590D01*
X00788260Y01694010D02*
X00858260D01*
X00788260Y01667010D02*
X00858260D01*
Y01694010D01*
X00701340Y01603040D02*
Y01623360D01*
X00640380Y01603040D02*
X00701340D01*
X00640380D02*
Y01623360D01*
X00701340D01*
Y01613200D02*
X00711500D01*
X00630220D02*
X00640380D01*
X00786990Y01559390D02*
X00856990D01*
X00786990Y01532390D02*
X00856990D01*
Y01559390D01*
X00619550Y01697050D02*
Y01735250D01*
Y01697050D02*
X00739950D01*
Y01735250D01*
Y01781250D02*
Y01861050D01*
X00619550D02*
X00739950D01*
X00619550Y01781250D02*
Y01861050D01*
X00592120Y00904540D02*
Y00929940D01*
X00541320Y00904540D02*
X00592120D01*
X00541320D02*
Y00929940D01*
X00592120D01*
Y00759760D02*
Y00785160D01*
X00541320Y00759760D02*
X00592120D01*
X00541320D02*
Y00785160D01*
X00592120D01*
X00769920Y00842310D02*
X00795320D01*
Y00791510D02*
Y00842310D01*
X00769920Y00791510D02*
X00795320D01*
X00769920D02*
Y00842310D01*
X00664510Y00884220D02*
Y00894380D01*
Y00813100D02*
Y00823260D01*
X00674670D02*
Y00884220D01*
X00654350D02*
X00674670D01*
X00654350Y00823260D02*
Y00884220D01*
Y00823260D02*
X00674670D01*
X00729280Y00791510D02*
Y00842310D01*
Y00791510D02*
X00754680D01*
Y00842310D01*
X00729280D02*
X00754680D01*
X00891840Y01733850D02*
X00942640D01*
X00891840Y01708450D02*
Y01733850D01*
Y01708450D02*
X00942640D01*
Y01733850D01*
X00698800Y01039160D02*
X00749600D01*
X00698800Y00912160D02*
X00749600D01*
X00698800D02*
Y01039160D01*
X00749600Y00912160D02*
Y01039160D01*
X00952530Y00551910D02*
Y01081910D01*
X00823530Y00551910D02*
Y01081910D01*
Y00551910D02*
X00952530D01*
X00894380Y01081910D02*
X00952530D01*
X00823530D02*
X00881680D01*
X00637840Y00632760D02*
Y00658160D01*
X00688640D01*
Y00632760D02*
Y00658160D01*
X00637840Y00632760D02*
X00688640D01*
X00692450Y00515920D02*
Y00541320D01*
X00743250D01*
Y00515920D02*
Y00541320D01*
X00692450Y00515920D02*
X00743250D01*
X00625140Y00733090D02*
X00635300D01*
X00696260D02*
X00706420D01*
X00635300Y00743250D02*
X00696260D01*
X00635300Y00722930D02*
Y00743250D01*
Y00722930D02*
X00696260D01*
Y00743250D01*
X00707280Y00552050D02*
X00756280D01*
X00707280Y00655050D02*
X00756280D01*
X00707280Y00552050D02*
Y00655050D01*
X00756280Y00552050D02*
Y00655050D01*
X00751280Y00552050D02*
Y00655050D01*
X01131310Y00715470D02*
X01178311D01*
X01131310Y00608470D02*
X01178311D01*
Y00715470D01*
X01131310Y00608470D02*
Y00715470D01*
X01136310Y00608470D02*
Y00715470D01*
X01122980Y00576880D02*
X01133140D01*
X01051860D02*
X01062020D01*
Y00566720D02*
X01122980D01*
Y00587040D01*
X01062020D02*
X01122980D01*
X01062020Y00566720D02*
Y00587040D01*
X01131310Y00955500D02*
X01178311D01*
X01131310Y00848500D02*
X01178311D01*
Y00955500D01*
X01131310Y00848500D02*
Y00955500D01*
X01136310Y00848500D02*
Y00955500D01*
X01122980Y00814370D02*
X01133140D01*
X01051860D02*
X01062020D01*
Y00804210D02*
X01122980D01*
Y00824530D01*
X01062020D02*
X01122980D01*
X01062020Y00804210D02*
Y00824530D01*
X01131310Y01192990D02*
X01178311D01*
X01131310Y01085990D02*
X01178311D01*
Y01192990D01*
X01131310Y01085990D02*
Y01192990D01*
X01136310Y01085990D02*
Y01192990D01*
X01122980Y01053130D02*
X01133140D01*
X01051860D02*
X01062020D01*
Y01042970D02*
X01122980D01*
Y01063290D01*
X01062020D02*
X01122980D01*
X01062020Y01042970D02*
Y01063290D01*
X01132580Y01443180D02*
X01179581D01*
X01132580Y01336180D02*
X01179581D01*
Y01443180D01*
X01132580Y01336180D02*
Y01443180D01*
X01137580Y01336180D02*
Y01443180D01*
X01122980Y01300780D02*
X01133140D01*
X01051860D02*
X01062020D01*
Y01290620D02*
X01122980D01*
Y01310940D01*
X01062020D02*
X01122980D01*
X01062020Y01290620D02*
Y01310940D01*
X01130040Y01693370D02*
X01177041D01*
X01130040Y01586370D02*
X01177041D01*
Y01693370D01*
X01130040Y01586370D02*
Y01693370D01*
X01135040Y01586370D02*
Y01693370D01*
X01122980Y01553510D02*
X01133140D01*
X01051860D02*
X01062020D01*
Y01543350D02*
X01122980D01*
Y01563670D01*
X01062020D02*
X01122980D01*
X01062020Y01543350D02*
Y01563670D01*
X01466340Y00665780D02*
Y00685931D01*
Y00632930D02*
Y00653080D01*
X01206340Y00632930D02*
Y00685931D01*
X01466340D01*
X01206340Y00632930D02*
X01466340D01*
Y00907080D02*
Y00927231D01*
Y00874230D02*
Y00894380D01*
X01206340Y00874230D02*
Y00927231D01*
X01466340D01*
X01206340Y00874230D02*
X01466340D01*
Y01144570D02*
Y01164721D01*
Y01111720D02*
Y01131870D01*
X01206340Y01111720D02*
Y01164721D01*
X01466340D01*
X01206340Y01111720D02*
X01466340D01*
X01467610Y01394760D02*
Y01414911D01*
Y01361910D02*
Y01382060D01*
X01207610Y01361910D02*
Y01414911D01*
X01467610D01*
X01207610Y01361910D02*
X01467610D01*
X01465070Y01644950D02*
Y01665101D01*
Y01612100D02*
Y01632250D01*
X01205070Y01612100D02*
Y01665101D01*
X01465070D01*
X01205070Y01612100D02*
X01465070D01*
X01625870Y01517980D02*
X01653870D01*
X01625870Y00753380D02*
Y01517980D01*
Y00753380D02*
X01653870D01*
Y01517980D01*
X00680970Y00600150D02*
Y00623150D01*
X00534970D02*
X00680970D01*
X00534970Y00533150D02*
Y00623150D01*
X00680970Y00533150D02*
Y00556150D01*
X00661970Y00533150D02*
X00680970D01*
X00534970D02*
X00617970D01*
X00635470Y00677180D02*
X00688470D01*
X00635470Y00705180D02*
X00688470D01*
X00635470Y00677180D02*
Y00705180D01*
D42*
X00668500Y01690550D02*
G03*
X00668500Y01690550I-00001250J00000000D01*
G01*
X01661620Y01503980D02*
G03*
X01661620Y01503980I-00001250J00000000D01*
G01*
D43*
X00716580Y00907924D02*
Y00899460D01*
X00708116Y00907924D01*
X00706000D01*
X00703884Y00905808D01*
Y00901576D01*
X00706000Y00899460D01*
X00741980Y00904540D02*
Y00908772D01*
Y00906656D01*
X00729284D01*
X00731400Y00904540D01*
X00739864Y01041700D02*
X00741980Y01043816D01*
Y01048048D01*
X00739864Y01050164D01*
X00731400D01*
X00729284Y01048048D01*
Y01043816D01*
X00731400Y01041700D01*
X00733516D01*
X00735632Y01043816D01*
Y01050164D01*
X00716580Y01041700D02*
Y01045932D01*
Y01043816D01*
X00703884D01*
X00706000Y01041700D01*
Y01052280D02*
X00703884Y01054396D01*
Y01058628D01*
X00706000Y01060744D01*
X00714464D01*
X00716580Y01058628D01*
Y01054396D01*
X00714464Y01052280D01*
X00706000D01*
D44*
X00700026Y00583150D02*
X00702525Y00580651D01*
Y00575653D01*
X00700026Y00573153D01*
X00697527D01*
X00695028Y00575653D01*
Y00578152D01*
Y00575653D01*
X00692529Y00573153D01*
X00690029D01*
X00687530Y00575653D01*
Y00580651D01*
X00690029Y00583150D01*
X00687530Y00598554D02*
Y00608550D01*
X00697527Y00598554D01*
X00700026D01*
X00702525Y00601053D01*
Y00606051D01*
X00700026Y00608550D01*
X00687530Y00631450D02*
Y00626452D01*
Y00628951D01*
X00702525D01*
X00700026Y00631450D01*
X01185564Y00682370D02*
X01183065Y00684869D01*
Y00689868D01*
X01185564Y00692367D01*
X01188064D01*
X01190563Y00689868D01*
Y00687369D01*
Y00689868D01*
X01193062Y00692367D01*
X01195561D01*
X01198060Y00689868D01*
Y00684869D01*
X01195561Y00682370D01*
X01198060Y00666967D02*
Y00656970D01*
X01188064Y00666967D01*
X01185564D01*
X01183065Y00664468D01*
Y00659469D01*
X01185564Y00656970D01*
X01198060Y00634070D02*
Y00639069D01*
Y00636569D01*
X01183065D01*
X01185564Y00634070D01*
Y00922400D02*
X01183065Y00924899D01*
Y00929898D01*
X01185564Y00932397D01*
X01188064D01*
X01190563Y00929898D01*
Y00927399D01*
Y00929898D01*
X01193062Y00932397D01*
X01195561D01*
X01198060Y00929898D01*
Y00924899D01*
X01195561Y00922400D01*
X01198060Y00906997D02*
Y00897000D01*
X01188064Y00906997D01*
X01185564D01*
X01183065Y00904498D01*
Y00899499D01*
X01185564Y00897000D01*
X01198060Y00874100D02*
Y00879099D01*
Y00876599D01*
X01183065D01*
X01185564Y00874100D01*
Y01159890D02*
X01183065Y01162389D01*
Y01167388D01*
X01185564Y01169887D01*
X01188064D01*
X01190563Y01167388D01*
Y01164889D01*
Y01167388D01*
X01193062Y01169887D01*
X01195561D01*
X01198060Y01167388D01*
Y01162389D01*
X01195561Y01159890D01*
X01198060Y01144487D02*
Y01134490D01*
X01188064Y01144487D01*
X01185564D01*
X01183065Y01141988D01*
Y01136989D01*
X01185564Y01134490D01*
X01198060Y01111590D02*
Y01116589D01*
Y01114089D01*
X01183065D01*
X01185564Y01111590D01*
X01186834Y01410080D02*
X01184335Y01412579D01*
Y01417578D01*
X01186834Y01420077D01*
X01189334D01*
X01191833Y01417578D01*
Y01415079D01*
Y01417578D01*
X01194332Y01420077D01*
X01196831D01*
X01199330Y01417578D01*
Y01412579D01*
X01196831Y01410080D01*
X01199330Y01394677D02*
Y01384680D01*
X01189334Y01394677D01*
X01186834D01*
X01184335Y01392178D01*
Y01387179D01*
X01186834Y01384680D01*
X01199330Y01361780D02*
Y01366779D01*
Y01364279D01*
X01184335D01*
X01186834Y01361780D01*
X01184294Y01660270D02*
X01181795Y01662769D01*
Y01667768D01*
X01184294Y01670267D01*
X01186794D01*
X01189293Y01667768D01*
Y01665269D01*
Y01667768D01*
X01191792Y01670267D01*
X01194291D01*
X01196790Y01667768D01*
Y01662769D01*
X01194291Y01660270D01*
X01196790Y01644867D02*
Y01634870D01*
X01186794Y01644867D01*
X01184294D01*
X01181795Y01642368D01*
Y01637369D01*
X01184294Y01634870D01*
X01196790Y01611970D02*
Y01616969D01*
Y01614469D01*
X01181795D01*
X01184294Y01611970D01*
D45*
X00791260Y01680510D02*
D03*
X00789990Y01545890D02*
D03*
D46*
X00685470Y00691179D02*
D03*
M02*
