%FSAX44Y44*%
%MOMM*%
G71*
G01*
G75*
G04 Layer_Color=8388736*
%ADD10C,0.3000*%
%ADD11C,1.2000*%
%ADD12C,0.7000*%
%ADD13C,1.4000*%
%ADD14C,1.2000*%
%ADD15R,1.5000X1.5000*%
%ADD16C,1.5000*%
%ADD17C,1.6000*%
%ADD18R,1.5000X1.5000*%
%ADD19C,3.8000*%
%ADD20R,1.6000X1.6000*%
%ADD21C,1.3500*%
%ADD22R,1.3500X1.3500*%
%ADD23C,1.5240*%
%ADD24C,1.5000*%
%ADD25R,1.5000X1.5000*%
%ADD26C,1.7000*%
%ADD27R,1.7000X1.7000*%
%ADD28C,1.3000*%
%ADD29R,1.5000X1.5000*%
%ADD30C,1.6000*%
%ADD31R,1.6000X1.6000*%
%ADD32O,4.0000X2.0000*%
%ADD33O,2.0000X4.0000*%
%ADD34O,2.0000X4.5000*%
%ADD35R,2.0000X2.0000*%
%ADD36C,2.0000*%
%ADD37C,1.7780*%
%ADD38C,3.0000*%
%ADD39C,1.5000*%
%ADD40C,0.2540*%
%ADD41C,0.2000*%
%ADD42C,0.2500*%
%ADD43C,0.2032*%
%ADD44C,0.1500*%
%ADD45R,0.8000X2.7000*%
%ADD46R,0.8000X2.8000*%
%ADD47C,1.6032*%
%ADD48C,1.4032*%
%ADD49R,1.7032X1.7032*%
%ADD50C,1.7032*%
%ADD51C,1.8032*%
%ADD52R,1.7032X1.7032*%
%ADD53C,4.0032*%
%ADD54R,1.8032X1.8032*%
%ADD55C,1.5532*%
%ADD56R,1.5532X1.5532*%
%ADD57C,1.7272*%
%ADD58C,1.7032*%
%ADD59R,1.7032X1.7032*%
%ADD60C,1.9032*%
%ADD61R,1.9032X1.9032*%
%ADD62C,1.5032*%
%ADD63R,1.7032X1.7032*%
%ADD64C,1.8032*%
%ADD65R,1.8032X1.8032*%
%ADD66O,4.2032X2.2032*%
%ADD67O,2.2032X4.2032*%
%ADD68O,2.2032X4.7032*%
%ADD69R,2.2032X2.2032*%
%ADD70C,2.2032*%
%ADD71C,1.9812*%
%ADD72C,3.2032*%
D47*
X00627680Y01410000D02*
D03*
Y01308400D02*
D03*
X00570530D02*
D03*
Y01410000D02*
D03*
X00842310Y01291890D02*
D03*
Y01190290D02*
D03*
X00903270Y01256330D02*
D03*
Y01154730D02*
D03*
X00750870Y01575100D02*
D03*
X00649270D02*
D03*
X00750870Y01651300D02*
D03*
X00649270D02*
D03*
X00721660Y01613200D02*
D03*
X00620060D02*
D03*
X00664510Y00904540D02*
D03*
Y00802940D02*
D03*
X00614980Y00733090D02*
D03*
X00716580D02*
D03*
X01143300Y00576880D02*
D03*
X01041700D02*
D03*
X01143300Y00814370D02*
D03*
X01041700D02*
D03*
X01143300Y01053130D02*
D03*
X01041700D02*
D03*
X01143300Y01300780D02*
D03*
X01041700D02*
D03*
X01143300Y01553510D02*
D03*
X01041700D02*
D03*
D48*
X00915970Y01497630D02*
D03*
X00890570D02*
D03*
X00915970Y01338880D02*
D03*
X00890570D02*
D03*
Y01396030D02*
D03*
Y01444830D02*
D03*
X00842310Y01360470D02*
D03*
Y01335070D02*
D03*
X00579420Y00917240D02*
D03*
X00554020D02*
D03*
X00579420Y00772460D02*
D03*
X00554020D02*
D03*
X00569260Y00815100D02*
D03*
Y00863900D02*
D03*
X00782620Y00829610D02*
D03*
Y00804210D02*
D03*
X00650540Y00645460D02*
D03*
X00675940D02*
D03*
X00705150Y00528620D02*
D03*
X00730550D02*
D03*
D49*
X00866440Y01154730D02*
D03*
X00801670Y01149650D02*
D03*
X00772260Y01680510D02*
D03*
X00770990Y01545890D02*
D03*
X00904540Y01721150D02*
D03*
D50*
X00841040Y01154730D02*
D03*
X00725470Y01479850D02*
D03*
Y01454450D02*
D03*
Y01429050D02*
D03*
Y01403650D02*
D03*
Y01378250D02*
D03*
Y01352850D02*
D03*
Y01327450D02*
D03*
Y01302050D02*
D03*
Y01276650D02*
D03*
Y01251250D02*
D03*
Y01225850D02*
D03*
Y01200450D02*
D03*
Y01175050D02*
D03*
Y01149650D02*
D03*
X00801670Y01479850D02*
D03*
Y01454450D02*
D03*
Y01429050D02*
D03*
Y01403650D02*
D03*
Y01378250D02*
D03*
Y01352850D02*
D03*
Y01327450D02*
D03*
Y01302050D02*
D03*
Y01276650D02*
D03*
Y01251250D02*
D03*
Y01225850D02*
D03*
Y01200450D02*
D03*
Y01175050D02*
D03*
X00672130Y01187750D02*
D03*
X00940100Y01149650D02*
D03*
Y01124250D02*
D03*
X00874260Y01680510D02*
D03*
X00872990Y01545890D02*
D03*
X00741980Y00829610D02*
D03*
X00929940Y01721150D02*
D03*
X00711500Y00924860D02*
D03*
X00736900Y00950260D02*
D03*
X00711500D02*
D03*
X00736900Y00975660D02*
D03*
X00711500D02*
D03*
X00736900Y01001060D02*
D03*
X00711500D02*
D03*
X00736900Y01026460D02*
D03*
X00711500D02*
D03*
X00629970Y00528150D02*
D03*
X00649970D02*
D03*
X00609970Y00588150D02*
D03*
Y00568150D02*
D03*
X01553510Y01600500D02*
D03*
D51*
X00607360Y01488740D02*
D03*
Y01463340D02*
D03*
X00604820Y01256330D02*
D03*
Y01281730D02*
D03*
X00692250Y01731150D02*
D03*
X00667250D02*
D03*
X00692250Y01711150D02*
D03*
X00579420Y00692450D02*
D03*
X00554020D02*
D03*
D52*
X00672130Y01213150D02*
D03*
X00940100Y01175050D02*
D03*
X00741980Y00804210D02*
D03*
X00736900Y00924860D02*
D03*
D53*
X00739950Y01758250D02*
D03*
X00619550D02*
D03*
D54*
X00667250Y01711150D02*
D03*
D55*
X00546800Y01638600D02*
D03*
D56*
X00596800D02*
D03*
D57*
X00574740Y01191200D02*
D03*
Y01146200D02*
D03*
X00573470Y01055310D02*
D03*
Y01010310D02*
D03*
D58*
X00964230Y00575610D02*
D03*
Y00601010D02*
D03*
Y00626410D02*
D03*
Y00651810D02*
D03*
Y00677210D02*
D03*
Y00702610D02*
D03*
Y00728010D02*
D03*
Y00753410D02*
D03*
Y00778810D02*
D03*
Y00804210D02*
D03*
Y00829610D02*
D03*
Y00855010D02*
D03*
Y00880410D02*
D03*
Y00905810D02*
D03*
Y00931210D02*
D03*
Y00956610D02*
D03*
Y00982010D02*
D03*
Y01007410D02*
D03*
Y01032810D02*
D03*
Y01058210D02*
D03*
X00811830Y00575610D02*
D03*
Y00601010D02*
D03*
Y00626410D02*
D03*
Y00651810D02*
D03*
Y00677210D02*
D03*
Y00702610D02*
D03*
Y00728010D02*
D03*
Y00753410D02*
D03*
Y00778810D02*
D03*
Y00804210D02*
D03*
Y00829610D02*
D03*
Y00855010D02*
D03*
Y00880410D02*
D03*
Y00905810D02*
D03*
Y00931210D02*
D03*
Y00956610D02*
D03*
Y00982010D02*
D03*
Y01007410D02*
D03*
Y01032810D02*
D03*
X01425240Y00697530D02*
D03*
X01399840D02*
D03*
X01374440D02*
D03*
X01349040D02*
D03*
X01323640D02*
D03*
X01298240D02*
D03*
X01272840D02*
D03*
X01247440D02*
D03*
X01222040D02*
D03*
X01450640Y00621330D02*
D03*
X01425240D02*
D03*
X01399840D02*
D03*
X01374440D02*
D03*
X01349040D02*
D03*
X01323640D02*
D03*
X01298240D02*
D03*
X01272840D02*
D03*
X01247440D02*
D03*
X01222040D02*
D03*
X01425240Y00938830D02*
D03*
X01399840D02*
D03*
X01374440D02*
D03*
X01349040D02*
D03*
X01323640D02*
D03*
X01298240D02*
D03*
X01272840D02*
D03*
X01247440D02*
D03*
X01222040D02*
D03*
X01450640Y00862630D02*
D03*
X01425240D02*
D03*
X01399840D02*
D03*
X01374440D02*
D03*
X01349040D02*
D03*
X01323640D02*
D03*
X01298240D02*
D03*
X01272840D02*
D03*
X01247440D02*
D03*
X01222040D02*
D03*
X01425240Y01176320D02*
D03*
X01399840D02*
D03*
X01374440D02*
D03*
X01349040D02*
D03*
X01323640D02*
D03*
X01298240D02*
D03*
X01272840D02*
D03*
X01247440D02*
D03*
X01222040D02*
D03*
X01450640Y01100120D02*
D03*
X01425240D02*
D03*
X01399840D02*
D03*
X01374440D02*
D03*
X01349040D02*
D03*
X01323640D02*
D03*
X01298240D02*
D03*
X01272840D02*
D03*
X01247440D02*
D03*
X01222040D02*
D03*
X01426510Y01426510D02*
D03*
X01401110D02*
D03*
X01375710D02*
D03*
X01350310D02*
D03*
X01324910D02*
D03*
X01299510D02*
D03*
X01274110D02*
D03*
X01248710D02*
D03*
X01223310D02*
D03*
X01451910Y01350310D02*
D03*
X01426510D02*
D03*
X01401110D02*
D03*
X01375710D02*
D03*
X01350310D02*
D03*
X01324910D02*
D03*
X01299510D02*
D03*
X01274110D02*
D03*
X01248710D02*
D03*
X01223310D02*
D03*
X01423970Y01676700D02*
D03*
X01398570D02*
D03*
X01373170D02*
D03*
X01347770D02*
D03*
X01322370D02*
D03*
X01296970D02*
D03*
X01271570D02*
D03*
X01246170D02*
D03*
X01220770D02*
D03*
X01449370Y01600500D02*
D03*
X01423970D02*
D03*
X01398570D02*
D03*
X01373170D02*
D03*
X01347770D02*
D03*
X01322370D02*
D03*
X01296970D02*
D03*
X01271570D02*
D03*
X01246170D02*
D03*
X01220770D02*
D03*
X00671970Y00565650D02*
D03*
Y00590650D02*
D03*
D59*
X00811830Y01058210D02*
D03*
D60*
X00729280Y00578150D02*
D03*
Y00603550D02*
D03*
X01159810Y00687370D02*
D03*
Y00661970D02*
D03*
Y00927400D02*
D03*
Y00902000D02*
D03*
Y01164890D02*
D03*
Y01139490D02*
D03*
X01161080Y01415080D02*
D03*
Y01389680D02*
D03*
X01158540Y01665270D02*
D03*
Y01639870D02*
D03*
D61*
X00729280Y00628950D02*
D03*
X01159810Y00636570D02*
D03*
Y00876600D02*
D03*
Y01114090D02*
D03*
X01161080Y01364280D02*
D03*
X01158540Y01614470D02*
D03*
D62*
X01487470Y00645200D02*
D03*
Y00676200D02*
D03*
Y00886500D02*
D03*
Y00917500D02*
D03*
Y01123990D02*
D03*
Y01154990D02*
D03*
X01490010Y01372910D02*
D03*
Y01403910D02*
D03*
X01486200Y01624370D02*
D03*
Y01655370D02*
D03*
X01474770Y01506260D02*
D03*
Y01537260D02*
D03*
X01436670Y01506260D02*
D03*
Y01537260D02*
D03*
X01398570Y01506260D02*
D03*
Y01537260D02*
D03*
X01360470Y01506260D02*
D03*
Y01537260D02*
D03*
X01322370Y01506260D02*
D03*
Y01537260D02*
D03*
X01477310Y01256330D02*
D03*
Y01287330D02*
D03*
X01439210Y01256070D02*
D03*
Y01287070D02*
D03*
X01401110Y01256070D02*
D03*
Y01287070D02*
D03*
X01324910Y01256070D02*
D03*
Y01287070D02*
D03*
X01363010Y01256070D02*
D03*
Y01287070D02*
D03*
X01476040Y01005880D02*
D03*
Y01036880D02*
D03*
X01437940Y01005880D02*
D03*
Y01036880D02*
D03*
X01361740Y01005880D02*
D03*
Y01036880D02*
D03*
X01399840Y01005880D02*
D03*
Y01036880D02*
D03*
X01323640Y01005880D02*
D03*
Y01036880D02*
D03*
X01476040Y00768390D02*
D03*
Y00799390D02*
D03*
X01399840Y00768390D02*
D03*
Y00799390D02*
D03*
X01361740Y00768390D02*
D03*
Y00799390D02*
D03*
X01323640Y00768390D02*
D03*
Y00799390D02*
D03*
X01437940Y00768390D02*
D03*
Y00799390D02*
D03*
X01323640Y00528360D02*
D03*
Y00559360D02*
D03*
X01361740Y00528360D02*
D03*
Y00559360D02*
D03*
X01399840Y00528360D02*
D03*
Y00559360D02*
D03*
X01437940Y00528360D02*
D03*
Y00559360D02*
D03*
X01476040Y00528360D02*
D03*
Y00559360D02*
D03*
D63*
X01450640Y00697530D02*
D03*
Y00938830D02*
D03*
Y01176320D02*
D03*
X01451910Y01426510D02*
D03*
X01449370Y01676700D02*
D03*
D64*
X01639870Y00767380D02*
D03*
Y00792780D02*
D03*
Y00818180D02*
D03*
Y00843580D02*
D03*
Y00868980D02*
D03*
Y00894380D02*
D03*
Y00919780D02*
D03*
Y00945180D02*
D03*
Y00970580D02*
D03*
Y00995980D02*
D03*
Y01021380D02*
D03*
Y01046780D02*
D03*
Y01072180D02*
D03*
Y01097580D02*
D03*
Y01122980D02*
D03*
Y01148380D02*
D03*
Y01173780D02*
D03*
Y01199180D02*
D03*
Y01224580D02*
D03*
Y01249980D02*
D03*
Y01275380D02*
D03*
Y01300780D02*
D03*
Y01326180D02*
D03*
Y01351580D02*
D03*
Y01376980D02*
D03*
Y01402380D02*
D03*
Y01427780D02*
D03*
Y01453180D02*
D03*
Y01478580D02*
D03*
D65*
Y01503980D02*
D03*
D66*
X00639970Y00528150D02*
D03*
D67*
X00609970Y00578150D02*
D03*
D68*
X00671970D02*
D03*
D69*
X00714270Y00691180D02*
D03*
D70*
X00609670D02*
D03*
D71*
X00599740Y01203700D02*
D03*
Y01133700D02*
D03*
X00598470Y01067810D02*
D03*
Y00997810D02*
D03*
D72*
X00555290Y01765600D02*
D03*
X01661460D02*
D03*
Y00490520D02*
D03*
X00555290D02*
D03*
M02*
