%FSAX44Y44*%
%MOMM*%
G71*
G01*
G75*
%ADD10C,0.2540*%
%ADD11C,0.7000*%
%ADD12C,0.3000*%
%ADD13C,2.5000*%
%ADD14C,1.7000*%
%ADD15C,1.6000*%
%ADD16R,1.6000X1.6000*%
%ADD17C,3.0000*%
%ADD18C,0.2500*%
%ADD19C,0.2000*%
%ADD20C,2.7032*%
%ADD21C,1.9032*%
%ADD22C,1.8032*%
%ADD23R,1.8032X1.8032*%
%ADD24C,3.2032*%
%ADD25C,0.1270*%
%ADD26C,0.1693*%
D25*
X01463500Y01531230D02*
X01478500D01*
X01471000Y01523730D02*
Y01538730D01*
X01463500Y00931230D02*
X01478500D01*
X01471000Y00923730D02*
Y00938730D01*
X01463500Y01131230D02*
X01478500D01*
X01471000Y01123730D02*
Y01138730D01*
X01463500Y00731230D02*
X01478500D01*
X01471000Y00723730D02*
Y00738730D01*
X01463500Y01331230D02*
X01478500D01*
X01471000Y01323730D02*
Y01338730D01*
X00566500Y00731230D02*
X00575500D01*
X00571000Y00726730D02*
Y00735730D01*
X00766500Y00731230D02*
X00775500D01*
X00771000Y00726730D02*
Y00735730D01*
X00966500Y00731230D02*
X00975500D01*
X00971000Y00726730D02*
Y00735730D01*
X01166500Y00731230D02*
X01175500D01*
X01171000Y00726730D02*
Y00735730D01*
X01366500Y00731230D02*
X01375500D01*
X01371000Y00726730D02*
Y00735730D01*
X00566500Y00931230D02*
X00575500D01*
X00571000Y00926730D02*
Y00935730D01*
X00766500Y00931230D02*
X00775500D01*
X00771000Y00926730D02*
Y00935730D01*
X00966500Y00931230D02*
X00975500D01*
X00971000Y00926730D02*
Y00935730D01*
X01166500Y00931230D02*
X01175500D01*
X01171000Y00926730D02*
Y00935730D01*
X01366500Y00931230D02*
X01375500D01*
X01371000Y00926730D02*
Y00935730D01*
X00566500Y01131230D02*
X00575500D01*
X00571000Y01126730D02*
Y01135730D01*
X00766500Y01131230D02*
X00775500D01*
X00771000Y01126730D02*
Y01135730D01*
X00966500Y01131230D02*
X00975500D01*
X00971000Y01126730D02*
Y01135730D01*
X01166500Y01131230D02*
X01175500D01*
X01171000Y01126730D02*
Y01135730D01*
X01366500Y01131230D02*
X01375500D01*
X01371000Y01126730D02*
Y01135730D01*
X00566500Y01331230D02*
X00575500D01*
X00571000Y01326730D02*
Y01335730D01*
X00766500Y01331230D02*
X00775500D01*
X00771000Y01326730D02*
Y01335730D01*
X00966500Y01331230D02*
X00975500D01*
X00971000Y01326730D02*
Y01335730D01*
X01166500Y01331230D02*
X01175500D01*
X01171000Y01326730D02*
Y01335730D01*
X01366500Y01331230D02*
X01375500D01*
X01371000Y01326730D02*
Y01335730D01*
X01366500Y01531230D02*
X01375500D01*
X01371000Y01526730D02*
Y01535730D01*
X01166500Y01531230D02*
X01175500D01*
X01171000Y01526730D02*
Y01535730D01*
X00966500Y01531230D02*
X00975500D01*
X00971000Y01526730D02*
Y01535730D01*
X00766500Y01531230D02*
X00775500D01*
X00771000Y01526730D02*
Y01535730D01*
X00566500Y01531230D02*
X00575500D01*
X00571000Y01526730D02*
Y01535730D01*
X01634920Y00767380D02*
X01644820D01*
X01639870Y00762430D02*
Y00772330D01*
X01634920Y00792780D02*
X01644820D01*
X01639870Y00787830D02*
Y00797730D01*
X01634920Y00818180D02*
X01644820D01*
X01639870Y00813230D02*
Y00823130D01*
X01634920Y00843580D02*
X01644820D01*
X01639870Y00838630D02*
Y00848530D01*
X01634920Y00868980D02*
X01644820D01*
X01639870Y00864030D02*
Y00873930D01*
X01634920Y00894380D02*
X01644820D01*
X01639870Y00889430D02*
Y00899330D01*
X01634920Y00919780D02*
X01644820D01*
X01639870Y00914830D02*
Y00924730D01*
X01634920Y00945180D02*
X01644820D01*
X01639870Y00940230D02*
Y00950130D01*
X01634920Y00970580D02*
X01644820D01*
X01639870Y00965630D02*
Y00975530D01*
X01634920Y00995980D02*
X01644820D01*
X01639870Y00991030D02*
Y01000930D01*
X01634920Y01021380D02*
X01644820D01*
X01639870Y01016430D02*
Y01026330D01*
X01634920Y01046780D02*
X01644820D01*
X01639870Y01041830D02*
Y01051730D01*
X01634920Y01072180D02*
X01644820D01*
X01639870Y01067230D02*
Y01077130D01*
X01634920Y01097580D02*
X01644820D01*
X01639870Y01092630D02*
Y01102530D01*
X01634920Y01122980D02*
X01644820D01*
X01639870Y01118030D02*
Y01127930D01*
X01634920Y01148380D02*
X01644820D01*
X01639870Y01143430D02*
Y01153330D01*
X01634920Y01173780D02*
X01644820D01*
X01639870Y01168830D02*
Y01178730D01*
X01634920Y01199180D02*
X01644820D01*
X01639870Y01194230D02*
Y01204130D01*
X01634920Y01224580D02*
X01644820D01*
X01639870Y01219630D02*
Y01229530D01*
X01634920Y01249980D02*
X01644820D01*
X01639870Y01245030D02*
Y01254930D01*
X01634920Y01275380D02*
X01644820D01*
X01639870Y01270430D02*
Y01280330D01*
X01634920Y01300780D02*
X01644820D01*
X01639870Y01295830D02*
Y01305730D01*
X01634920Y01326180D02*
X01644820D01*
X01639870Y01321230D02*
Y01331130D01*
X01634920Y01351580D02*
X01644820D01*
X01639870Y01346630D02*
Y01356530D01*
X01634920Y01376980D02*
X01644820D01*
X01639870Y01372030D02*
Y01381930D01*
X01634920Y01402380D02*
X01644820D01*
X01639870Y01397430D02*
Y01407330D01*
X01634920Y01427780D02*
X01644820D01*
X01639870Y01422830D02*
Y01432730D01*
X01634920Y01453180D02*
X01644820D01*
X01639870Y01448230D02*
Y01458130D01*
X01634920Y01478580D02*
X01644820D01*
X01639870Y01473630D02*
Y01483530D01*
X01634920Y01503980D02*
X01644820D01*
X01639870Y01499030D02*
Y01508930D01*
X00540290Y01765600D02*
X00570290D01*
X00555290Y01750600D02*
Y01780600D01*
X01646460Y01765600D02*
X01676460D01*
X01661460Y01750600D02*
Y01780600D01*
X01646460Y00490520D02*
X01676460D01*
X01661460Y00475520D02*
Y00505520D01*
X00540290Y00490520D02*
X00570290D01*
X00555290Y00475520D02*
Y00505520D01*
M02*
