%FSAX44Y44*%
%MOMM*%
G71*
G01*
G75*
%ADD10C,0.2540*%
%ADD11C,0.7000*%
%ADD12C,0.3000*%
%ADD13C,2.5000*%
%ADD14C,1.7000*%
%ADD15C,1.6000*%
%ADD16R,1.6000X1.6000*%
%ADD17C,3.0000*%
D13*
X01471000Y01531230D02*
D03*
Y00931230D02*
D03*
Y01131230D02*
D03*
Y00731230D02*
D03*
Y01331230D02*
D03*
D14*
X00571000Y00731230D02*
D03*
X00771000D02*
D03*
X00971000D02*
D03*
X01171000D02*
D03*
X01371000D02*
D03*
X00571000Y00931230D02*
D03*
X00771000D02*
D03*
X00971000D02*
D03*
X01171000D02*
D03*
X01371000D02*
D03*
X00571000Y01131230D02*
D03*
X00771000D02*
D03*
X00971000D02*
D03*
X01171000D02*
D03*
X01371000D02*
D03*
X00571000Y01331230D02*
D03*
X00771000D02*
D03*
X00971000D02*
D03*
X01171000Y01331230D02*
D03*
X01371000Y01331230D02*
D03*
Y01531230D02*
D03*
X01171000D02*
D03*
X00971000D02*
D03*
X00771000D02*
D03*
X00571000D02*
D03*
D15*
X01639870Y00767380D02*
D03*
Y00792780D02*
D03*
Y00818180D02*
D03*
Y00843580D02*
D03*
Y00868980D02*
D03*
Y00894380D02*
D03*
Y00919780D02*
D03*
Y00945180D02*
D03*
Y00970580D02*
D03*
Y00995980D02*
D03*
Y01021380D02*
D03*
Y01046780D02*
D03*
Y01072180D02*
D03*
Y01097580D02*
D03*
Y01122980D02*
D03*
Y01148380D02*
D03*
Y01173780D02*
D03*
Y01199180D02*
D03*
Y01224580D02*
D03*
Y01249980D02*
D03*
Y01275380D02*
D03*
Y01300780D02*
D03*
Y01326180D02*
D03*
Y01351580D02*
D03*
Y01376980D02*
D03*
Y01402380D02*
D03*
Y01427780D02*
D03*
Y01453180D02*
D03*
Y01478580D02*
D03*
D16*
Y01503980D02*
D03*
M02*
