%FSAX44Y44*%
%MOMM*%
G71*
G01*
G75*
G04 Layer_Physical_Order=1*
G04 Layer_Color=255*
%ADD10C,0.2540*%
%ADD11C,0.7000*%
%ADD12C,0.3000*%
%ADD13C,2.5000*%
%ADD14C,1.7000*%
%ADD15C,1.6000*%
%ADD16R,1.6000X1.6000*%
%ADD17C,3.0000*%
D10*
X01638720Y00766230D02*
X01639870Y00767380D01*
D11*
X01471000Y00766230D02*
X01638720D01*
X01471000Y00731230D02*
Y00766230D01*
Y01531230D02*
Y01566230D01*
X01506000Y00919336D02*
X01639870D01*
X01471000D02*
Y00931230D01*
Y00919336D02*
X01506000D01*
X01471000Y01071230D02*
Y01131230D01*
Y01071230D02*
X01636000D01*
X01471000Y01226230D02*
Y01331230D01*
Y01226230D02*
X01639870D01*
X01566000Y01543730D02*
Y01566230D01*
X01471000D02*
X01566000D01*
Y01376230D02*
X01639870D01*
X01566000D02*
Y01543730D01*
D12*
X01638320Y00791230D02*
X01639870Y00792780D01*
X01636000Y00996230D02*
X01639870D01*
X01511000Y01250000D02*
X01639870D01*
X01511000D02*
Y01376230D01*
X01521000Y01276230D02*
X01639870D01*
X01521000D02*
Y01386230D01*
X01531000Y01301230D02*
Y01396230D01*
Y01301230D02*
X01639870D01*
X01541000Y01326230D02*
X01639870D01*
X01541000D02*
Y01406230D01*
X01551000Y01351230D02*
X01641000D01*
X01551000D02*
Y01416230D01*
X01516913Y01097580D02*
Y01113493D01*
Y01097580D02*
X01639870D01*
X01526000Y01120115D02*
Y01132894D01*
Y01120115D02*
X01634885D01*
X01636000Y00891230D02*
X01641000Y00896230D01*
X01571000Y00856230D02*
Y00891230D01*
X01636000D01*
X01581000Y00857043D02*
Y00868980D01*
X01639870D01*
X01591000Y00835493D02*
Y00843580D01*
X01639870D01*
X01371000Y00731230D02*
Y00776230D01*
Y00791230D01*
X01638320D01*
X01171000Y00731230D02*
Y00783730D01*
X00971000Y00731230D02*
Y00761230D01*
Y00756230D02*
Y00761230D01*
Y00756230D02*
Y00761230D01*
X00771000Y00731230D02*
Y00798730D01*
X00571000Y00731230D02*
Y00806230D01*
Y00931230D02*
Y00983730D01*
X00771000Y00931230D02*
Y00976230D01*
X00971000Y00931230D02*
Y00968730D01*
X01171000Y00931230D02*
Y00961230D01*
Y00971230D01*
X01639870D01*
X01371000Y00931230D02*
Y00961230D01*
X01171000Y01131230D02*
Y01161230D01*
X00571000Y01131230D02*
Y01201230D01*
X01636000D01*
X00571000Y01331230D02*
Y01416230D01*
X01551000D01*
X00571000Y01531230D02*
Y01594980D01*
Y01616230D01*
X00771000Y01531230D02*
Y01606230D01*
X00971000Y01531230D02*
Y01596230D01*
X01171000Y01531230D02*
Y01586230D01*
X00771000Y01331230D02*
Y01406230D01*
X01541000D01*
X00971000Y01331230D02*
Y01396230D01*
X01531000D01*
X01171000Y01331230D02*
Y01386230D01*
X01521000D01*
X01371000Y01531230D02*
Y01576230D01*
Y01331230D02*
Y01376230D01*
X01511000D01*
X01371000Y00961230D02*
X01511000D01*
X01526461D01*
Y00940769D02*
Y00961230D01*
Y00940769D02*
X01526615Y00940615D01*
X01640385D01*
X00571000Y00983730D02*
Y01046230D01*
X01639870D01*
X00771000Y00976230D02*
Y01021230D01*
X01639870D01*
X00971000Y00968730D02*
Y00996230D01*
X01586000D01*
X01586000Y00996230D01*
X01636000D01*
X00771000Y00798730D02*
Y00836230D01*
X01581000D01*
Y00857043D01*
X00971000Y00761230D02*
Y00826230D01*
X01591000D01*
Y00835493D01*
X01171000Y00783730D02*
Y00816230D01*
X01601000D01*
X01637920D01*
X01639870Y00818180D01*
X00571000Y00806230D02*
Y00846230D01*
X01571000D01*
Y00858418D01*
X01536000Y01147558D02*
Y01155976D01*
Y01147558D02*
X01639048D01*
X01371000Y01131230D02*
Y01151230D01*
X01516913D01*
Y01113493D02*
Y01151230D01*
X01171000Y01161230D02*
X01526000D01*
Y01132894D02*
Y01161230D01*
X00971000Y01131230D02*
Y01171230D01*
X01536000D01*
Y01155976D02*
Y01171230D01*
X00771000Y01131230D02*
Y01180730D01*
X01546000D01*
X01641000D01*
X01371000Y01576230D02*
X01581000D01*
Y01553730D02*
Y01576230D01*
Y01401230D02*
Y01553730D01*
Y01401230D02*
X01639870D01*
X01171000Y01586230D02*
X01591000D01*
Y01567480D02*
Y01586230D01*
Y01426230D02*
Y01567480D01*
Y01426230D02*
X01639870D01*
X00971000Y01596230D02*
X01601000D01*
Y01581230D02*
Y01596230D01*
Y01451230D02*
Y01581230D01*
Y01451230D02*
X01641000D01*
X00771000Y01606230D02*
X01611000D01*
Y01480000D02*
Y01606230D01*
Y01480000D02*
X01639870D01*
X00571000Y01616230D02*
X01621000D01*
Y01506230D02*
Y01616230D01*
Y01506230D02*
X01641000D01*
D13*
X01471000Y01531230D02*
D03*
Y00931230D02*
D03*
Y01131230D02*
D03*
Y00731230D02*
D03*
Y01331230D02*
D03*
D14*
X00571000Y00731230D02*
D03*
X00771000D02*
D03*
X00971000D02*
D03*
X01171000D02*
D03*
X01371000D02*
D03*
X00571000Y00931230D02*
D03*
X00771000D02*
D03*
X00971000D02*
D03*
X01171000D02*
D03*
X01371000D02*
D03*
X00571000Y01131230D02*
D03*
X00771000D02*
D03*
X00971000D02*
D03*
X01171000D02*
D03*
X01371000D02*
D03*
X00571000Y01331230D02*
D03*
X00771000D02*
D03*
X00971000D02*
D03*
X01171000Y01331230D02*
D03*
X01371000Y01331230D02*
D03*
Y01531230D02*
D03*
X01171000D02*
D03*
X00971000D02*
D03*
X00771000D02*
D03*
X00571000D02*
D03*
D15*
X01639870Y00767380D02*
D03*
Y00792780D02*
D03*
Y00818180D02*
D03*
Y00843580D02*
D03*
Y00868980D02*
D03*
Y00894380D02*
D03*
Y00919780D02*
D03*
Y00945180D02*
D03*
Y00970580D02*
D03*
Y00995980D02*
D03*
Y01021380D02*
D03*
Y01046780D02*
D03*
Y01072180D02*
D03*
Y01097580D02*
D03*
Y01122980D02*
D03*
Y01148380D02*
D03*
Y01173780D02*
D03*
Y01199180D02*
D03*
Y01224580D02*
D03*
Y01249980D02*
D03*
Y01275380D02*
D03*
Y01300780D02*
D03*
Y01326180D02*
D03*
Y01351580D02*
D03*
Y01376980D02*
D03*
Y01402380D02*
D03*
Y01427780D02*
D03*
Y01453180D02*
D03*
Y01478580D02*
D03*
D16*
Y01503980D02*
D03*
D17*
X00555290Y01765600D02*
D03*
X01661460D02*
D03*
Y00490520D02*
D03*
X00555290D02*
D03*
M02*
