%FSAX44Y44*%
%MOMM*%
G71*
G01*
G75*
G04 Layer_Color=2752767*
%ADD10C,0.2540*%
%ADD11C,0.7000*%
%ADD12C,0.3000*%
%ADD13C,2.5000*%
%ADD14C,1.7000*%
%ADD15C,1.6000*%
%ADD16R,1.6000X1.6000*%
%ADD17C,3.0000*%
%ADD18C,0.2500*%
%ADD19C,0.2000*%
%ADD20C,2.7032*%
%ADD21C,1.9032*%
%ADD22C,1.8032*%
%ADD23R,1.8032X1.8032*%
%ADD24C,3.2032*%
%ADD25C,0.1270*%
%ADD26C,0.1693*%
D25*
X01465920Y01526150D02*
Y01536310D01*
X01476080D01*
Y01526150D01*
X01465920D01*
Y00926150D02*
Y00936310D01*
X01476080D01*
Y00926150D01*
X01465920D01*
Y01126150D02*
Y01136310D01*
X01476080D01*
Y01126150D01*
X01465920D01*
Y00726150D02*
Y00736310D01*
X01476080D01*
Y00726150D01*
X01465920D01*
Y01326150D02*
Y01336310D01*
X01476080D01*
Y01326150D01*
X01465920D01*
X01639870Y00762300D02*
X01634790Y00772460D01*
X01644950D01*
X01639870Y00762300D01*
Y00787700D02*
X01634790Y00797860D01*
X01644950D01*
X01639870Y00787700D01*
Y00813100D02*
X01634790Y00823260D01*
X01644950D01*
X01639870Y00813100D01*
Y00838500D02*
X01634790Y00848660D01*
X01644950D01*
X01639870Y00838500D01*
Y00863900D02*
X01634790Y00874060D01*
X01644950D01*
X01639870Y00863900D01*
Y00889300D02*
X01634790Y00899460D01*
X01644950D01*
X01639870Y00889300D01*
Y00914700D02*
X01634790Y00924860D01*
X01644950D01*
X01639870Y00914700D01*
Y00940100D02*
X01634790Y00950260D01*
X01644950D01*
X01639870Y00940100D01*
Y00965500D02*
X01634790Y00975660D01*
X01644950D01*
X01639870Y00965500D01*
Y00990900D02*
X01634790Y01001060D01*
X01644950D01*
X01639870Y00990900D01*
Y01016300D02*
X01634790Y01026460D01*
X01644950D01*
X01639870Y01016300D01*
Y01041700D02*
X01634790Y01051860D01*
X01644950D01*
X01639870Y01041700D01*
Y01067100D02*
X01634790Y01077260D01*
X01644950D01*
X01639870Y01067100D01*
Y01092500D02*
X01634790Y01102660D01*
X01644950D01*
X01639870Y01092500D01*
Y01117900D02*
X01634790Y01128060D01*
X01644950D01*
X01639870Y01117900D01*
Y01143300D02*
X01634790Y01153460D01*
X01644950D01*
X01639870Y01143300D01*
Y01168700D02*
X01634790Y01178860D01*
X01644950D01*
X01639870Y01168700D01*
Y01194100D02*
X01634790Y01204260D01*
X01644950D01*
X01639870Y01194100D01*
Y01219500D02*
X01634790Y01229660D01*
X01644950D01*
X01639870Y01219500D01*
Y01244900D02*
X01634790Y01255060D01*
X01644950D01*
X01639870Y01244900D01*
Y01270300D02*
X01634790Y01280460D01*
X01644950D01*
X01639870Y01270300D01*
Y01295700D02*
X01634790Y01305860D01*
X01644950D01*
X01639870Y01295700D01*
Y01321100D02*
X01634790Y01331260D01*
X01644950D01*
X01639870Y01321100D01*
Y01346500D02*
X01634790Y01356660D01*
X01644950D01*
X01639870Y01346500D01*
Y01371900D02*
X01634790Y01382060D01*
X01644950D01*
X01639870Y01371900D01*
Y01397300D02*
X01634790Y01407460D01*
X01644950D01*
X01639870Y01397300D01*
Y01422700D02*
X01634790Y01432860D01*
X01644950D01*
X01639870Y01422700D01*
Y01448100D02*
X01634790Y01458260D01*
X01644950D01*
X01639870Y01448100D01*
Y01473500D02*
X01634790Y01483660D01*
X01644950D01*
X01639870Y01473500D01*
Y01498900D02*
X01634790Y01509060D01*
X01644950D01*
X01639870Y01498900D01*
X00555290Y01760520D02*
X00557830Y01763060D01*
X00560370D01*
X00557830Y01765600D01*
X00560370Y01768140D01*
X00557830D01*
X00555290Y01770680D01*
X00552750Y01768140D01*
X00550210D01*
X00552750Y01765600D01*
X00550210Y01763060D01*
X00552750D01*
X00555290Y01760520D01*
X01661460D02*
X01664000Y01763060D01*
X01666540D01*
X01664000Y01765600D01*
X01666540Y01768140D01*
X01664000D01*
X01661460Y01770680D01*
X01658920Y01768140D01*
X01656380D01*
X01658920Y01765600D01*
X01656380Y01763060D01*
X01658920D01*
X01661460Y01760520D01*
Y00485440D02*
X01664000Y00487980D01*
X01666540D01*
X01664000Y00490520D01*
X01666540Y00493060D01*
X01664000D01*
X01661460Y00495600D01*
X01658920Y00493060D01*
X01656380D01*
X01658920Y00490520D01*
X01656380Y00487980D01*
X01658920D01*
X01661460Y00485440D01*
X00555290D02*
X00557830Y00487980D01*
X00560370D01*
X00557830Y00490520D01*
X00560370Y00493060D01*
X00557830D01*
X00555290Y00495600D01*
X00552750Y00493060D01*
X00550210D01*
X00552750Y00490520D01*
X00550210Y00487980D01*
X00552750D01*
X00555290Y00485440D01*
D26*
X00576080Y00731230D02*
G03*
X00576080Y00731230I-00005080J00000000D01*
G01*
X00776080D02*
G03*
X00776080Y00731230I-00005080J00000000D01*
G01*
X00976080D02*
G03*
X00976080Y00731230I-00005080J00000000D01*
G01*
X01176080D02*
G03*
X01176080Y00731230I-00005080J00000000D01*
G01*
X01376080D02*
G03*
X01376080Y00731230I-00005080J00000000D01*
G01*
X00576080Y00931230D02*
G03*
X00576080Y00931230I-00005080J00000000D01*
G01*
X00776080D02*
G03*
X00776080Y00931230I-00005080J00000000D01*
G01*
X00976080D02*
G03*
X00976080Y00931230I-00005080J00000000D01*
G01*
X01176080D02*
G03*
X01176080Y00931230I-00005080J00000000D01*
G01*
X01376080D02*
G03*
X01376080Y00931230I-00005080J00000000D01*
G01*
X00576080Y01131230D02*
G03*
X00576080Y01131230I-00005080J00000000D01*
G01*
X00776080D02*
G03*
X00776080Y01131230I-00005080J00000000D01*
G01*
X00976080D02*
G03*
X00976080Y01131230I-00005080J00000000D01*
G01*
X01176080D02*
G03*
X01176080Y01131230I-00005080J00000000D01*
G01*
X01376080D02*
G03*
X01376080Y01131230I-00005080J00000000D01*
G01*
X00576080Y01331230D02*
G03*
X00576080Y01331230I-00005080J00000000D01*
G01*
X00776080D02*
G03*
X00776080Y01331230I-00005080J00000000D01*
G01*
X00976080D02*
G03*
X00976080Y01331230I-00005080J00000000D01*
G01*
X01176080Y01331230D02*
G03*
X01176080Y01331230I-00005080J00000000D01*
G01*
X01376080Y01331230D02*
G03*
X01376080Y01331230I-00005080J00000000D01*
G01*
Y01531230D02*
G03*
X01376080Y01531230I-00005080J00000000D01*
G01*
X01176080D02*
G03*
X01176080Y01531230I-00005080J00000000D01*
G01*
X00976080D02*
G03*
X00976080Y01531230I-00005080J00000000D01*
G01*
X00776080D02*
G03*
X00776080Y01531230I-00005080J00000000D01*
G01*
X00576080D02*
G03*
X00576080Y01531230I-00005080J00000000D01*
G01*
M02*
