M48
;Layer_Color=9474304
;FILE_FORMAT=4:4
METRIC
;TYPE=PLATED
T1F00S00C0.7000
T2F00S00C0.7620
T3F00S00C0.8000
T4F00S00C0.8500
T5F00S00C0.9000
T6F00S00C0.9200
T7F00S00C0.9900
T8F00S00C1.0000
T9F00S00C1.0160
T10F00S00C1.1000
T11F00S00C1.2000
T12F00S00C2.3000
T13F00S00C3.0000
%
T01
X01323640Y00528360
Y00559360
X01361740
Y00528360
X01399840
Y00559360
X01437940
Y00528360
X01476040
Y00559360
X01487470Y00645200
Y00676200
X01476040Y00768390
X01437940
X01399840
X01361740
X01323640
X00579420Y00772460
X00554020
X00650540Y00645460
X00675940
X00705150Y00528620
X00730550
X00782620Y00804210
Y00829610
X00569260Y00815100
Y00863900
X00579420Y00917240
X00554020
X01323640Y01005880
Y01036880
X01361740
Y01005880
X01399840
Y01036880
X01437940
Y01005880
X01476040
Y01036880
X01487470Y01123990
Y01154990
Y00917500
Y00886500
X01476040Y00799390
X01437940
X01399840
X01361740
X01323640
X01324910Y01256070
Y01287070
X01363010
Y01256070
X01401110
Y01287070
X01439210
Y01256070
X01477310Y01256330
Y01287330
X01490010Y01372910
Y01403910
X01474770Y01506260
Y01537260
X01436670
Y01506260
X01398570
Y01537260
X01360470
Y01506260
X01322370
Y01537260
X00915970Y01497630
X00890570
Y01444830
Y01396030
Y01338880
X00915970
X00842310Y01335070
Y01360470
X01486200Y01624370
Y01655370
T02
X00573470Y01010310
Y01055310
X00574740Y01146200
Y01191200
T03
X00546800Y01638600
X00596800
T04
X01041700Y00576880
X01143300
X00716580Y00733090
X00614980
X00664510Y00802940
Y00904540
X00842310Y01190290
X00903270Y01154730
X01041700Y01053130
X01143300
Y00814370
X01041700
Y01300780
X01143300
Y01553510
X01041700
X00903270Y01256330
X00842310Y01291890
X00627680Y01308400
X00570530
Y01410000
X00627680
X00649270Y01575100
X00750870
X00721660Y01613200
X00750870Y01651300
X00649270
X00620060Y01613200
T05
X01222040Y00621330
X01247440
X01272840
X01298240
X01323640
X01349040
X01374440
X01399840
X01425240
X01450640
Y00697530
X01425240
X01399840
X01374440
X01349040
X01323640
X01298240
X01272840
X01247440
X01222040
X00964230Y00702610
Y00677210
Y00651810
Y00626410
Y00601010
Y00575610
Y00728010
Y00753410
Y00778810
X00811830
Y00753410
Y00728010
Y00702610
Y00677210
Y00651810
Y00626410
Y00601010
Y00575610
X00579420Y00692450
X00554020
X00741980Y00804210
Y00829610
X00736900Y00924860
X00711500
Y00950260
X00736900
Y00975660
X00711500
Y01001060
X00736900
Y01026460
X00711500
X00725470Y01149650
Y01175050
X00672130Y01187750
X00801670Y01175050
Y01149650
X00841040Y01154730
X00866440
X00940100Y01149650
Y01175050
Y01124250
X00964230Y01058210
Y01032810
Y01007410
Y00982010
Y00956610
Y00931210
Y00905810
Y00880410
Y00855010
Y00829610
Y00804210
X00811830
Y00829610
Y00855010
Y00880410
Y00905810
Y00931210
Y00956610
Y00982010
Y01007410
Y01032810
Y01058210
X01222040Y01100120
X01247440
X01272840
X01298240
X01323640
X01349040
X01374440
X01399840
X01425240
X01450640
Y01176320
X01425240
X01399840
X01374440
X01349040
X01323640
X01298240
X01272840
X01247440
X01222040
Y00938830
X01247440
X01272840
X01298240
X01323640
X01349040
X01374440
X01399840
X01425240
X01450640
Y00862630
X01425240
X01399840
X01374440
X01349040
X01323640
X01298240
X01272840
X01247440
X01222040
X01223310Y01350310
X01248710
X01274110
X01299510
X01324910
X01350310
X01375710
X01401110
X01426510
X01451910
Y01426510
X01426510
X01401110
X01375710
X01350310
X01324910
X01299510
X01274110
X01248710
X01223310
X00801670Y01429050
Y01454450
Y01479850
Y01403650
Y01378250
Y01352850
Y01327450
Y01302050
Y01276650
Y01251250
Y01225850
Y01200450
X00872990Y01545890
X00770990
X00725470Y01479850
Y01454450
Y01429050
Y01403650
Y01378250
Y01352850
Y01327450
Y01302050
Y01276650
Y01251250
Y01225850
Y01200450
X00672130Y01213150
X00604820Y01256330
Y01281730
X00607360Y01463340
Y01488740
X00772260Y01680510
X00874260
X00904540Y01721150
X00929940
X01220770Y01676700
X01246170
X01271570
X01296970
X01322370
X01347770
X01373170
X01398570
X01423970
X01449370
Y01600500
X01423970
X01398570
X01373170
X01347770
X01322370
X01296970
X01271570
X01246170
X01220770
T06
X00667250Y01711150
Y01731150
X00692250
Y01711150
T07
X01639870Y00767380
Y00792780
Y00818180
Y00843580
Y00868980
Y00894380
Y00919780
Y00945180
Y00970580
Y00995980
Y01021380
Y01046780
Y01072180
Y01097580
Y01122980
Y01148380
Y01173780
Y01199180
Y01224580
Y01249980
Y01275380
Y01300780
Y01326180
Y01351580
Y01376980
Y01402380
Y01427780
Y01453180
Y01478580
Y01503980
T08
X00629970Y00528150
X00639970
X00649970
X00671970Y00565650
Y00578150
Y00590650
X00609970Y00588150
Y00578150
Y00568150
X01553510Y01600500
T09
X00598470Y00997810
Y01067810
X00599740Y01133700
Y01203700
T10
X01159810Y00636570
Y00661970
Y00687370
X00729280Y00628950
Y00603550
Y00578150
X01159810Y00876600
Y00902000
Y00927400
Y01114090
Y01139490
Y01164890
X01161080Y01364280
Y01389680
Y01415080
X01158540Y01614470
Y01639870
Y01665270
T11
X00609670Y00691180
X00714270
T12
X00619550Y01758250
X00739950
T13
X01661460Y00490520
X00555290
Y01765600
X01661460
M30
